<svg width="56" height="56" viewBox="0 0 56 56" fill="none" xmlns="http://www.w3.org/2000/svg">
<rect width="56" height="56" rx="14" fill="#FF6694"/>
<path d="M33.5505 26.5505C33.0816 26.0809 32.3206 26.0811 31.8518 26.5509L30.0055 28.4014C28.9671 29.4398 27.5887 30.0126 26.1184 30.0126C24.6481 30.0126 23.2697 29.4398 22.2313 28.4014C20.1147 26.2848 20.0656 22.9215 22.121 20.7436L22.1486 20.716L26.7065 16.2653L26.6728 16.2286C22.8745 12.1393 16.7207 12.1393 12.9255 16.2286C9.1303 20.3148 9.1303 26.9434 12.9255 31.0296L25.3036 43.3647C26.7861 44.9606 29.2091 44.9606 30.6916 43.3647L40.6376 33.6485L33.5505 26.5505Z" fill="#FFF0F4"/>
<path d="M43.0713 16.2282C39.2761 12.142 33.1223 12.142 29.3271 16.2282L28.1784 17.4657H28.1815L28.0957 17.5546L27.9977 17.6587L27.9916 17.6526L23.4796 22.0543C22.1441 23.4817 22.1808 25.678 23.5654 27.0625C24.2454 27.7425 25.1521 28.1193 26.1139 28.1193C27.0757 28.1193 27.9824 27.7456 28.6624 27.0625L31.8534 23.8715C32.3223 23.4026 33.0827 23.4029 33.5512 23.8722L41.9257 32.2606L43.0713 31.0262C46.8665 26.94 46.8665 20.3114 43.0713 16.2252V16.2282Z" fill="#FFF0F4"/>
</svg>
