<svg width="100" height="100" viewBox="0 0 100 100" fill="none" xmlns="http://www.w3.org/2000/svg">
<g clip-path="url(#clip0_625_4091)">
<path d="M94.4111 37.0459H89.5645V61.9392H94.4111V37.0459Z" fill="#B1BDF1"/>
<path d="M97.7319 82.836C97.9279 83.9854 97.0424 85.0347 95.8764 85.0347H88.1011C86.9351 85.0347 86.0496 83.9854 86.2456 82.836L89.2984 64.935C89.4526 64.0306 90.2364 63.3691 91.1539 63.3691H92.8236C93.741 63.3691 94.5249 64.0306 94.6791 64.935L97.7319 82.836Z" fill="#B1BDF1"/>
<path d="M91.9887 70.8918C95.3677 70.8918 98.1068 68.1038 98.1068 64.6646C98.1068 61.2255 95.3677 58.4375 91.9887 58.4375C88.6098 58.4375 85.8706 61.2255 85.8706 64.6646C85.8706 68.1038 88.6098 70.8918 91.9887 70.8918Z" fill="#B1BDF1"/>
<path d="M49.9977 52.2432L20.9146 39.7217V76.6226C20.9146 83.2157 33.938 88.546 49.9977 88.546C66.0575 88.546 79.0809 83.2024 79.0809 76.6226V39.7217L49.9977 52.2432Z" fill="#B1BDF1"/>
<path d="M98.1233 34.4245C99.362 34.9805 99.3622 36.739 98.1236 37.2953L51.8008 58.1C50.655 58.6146 49.3438 58.6146 48.198 58.1L1.87515 37.2953C0.636604 36.739 0.636816 34.9805 1.87551 34.4245L48.199 13.6333C49.3442 13.1193 50.6545 13.1193 51.7998 13.6333L98.1233 34.4245Z" fill="#B1BDF1" stroke="white" stroke-width="2.5"/>
</g>
<defs>
<clipPath id="clip0_625_4091">
<rect width="100" height="100" fill="white"/>
</clipPath>
</defs>
</svg>
