<svg width="56" height="56" viewBox="0 0 56 56" fill="none" xmlns="http://www.w3.org/2000/svg">
<rect width="56" height="56" rx="14" fill="#FFCE2D"/>
<path d="M31.7871 8.95801C32.7542 8.95801 33.6478 9.46874 34.1133 10.3164C35.2084 12.311 37.1985 16.121 38.166 19.126C39.398 22.9522 39.9995 26.3631 40.3066 29.293C40.5615 31.7242 40.7116 35.0567 40.7852 37.0967C40.8279 38.2787 41.2738 39.4109 42.0596 40.2949L44.7344 43.3037C44.9216 43.5143 44.8377 43.8479 44.5732 43.9453L35.3564 47.3398C35.1253 47.4249 34.8669 47.3294 34.7471 47.1143L32.2783 42.6719L30.7471 40.375C29.6518 38.7322 29.0674 36.8016 29.0674 34.8271V26.374L29.0898 24.4355L29.0889 24.418C29.0326 23.366 29.8405 22.4677 30.8926 22.4111C31.9447 22.3549 32.8439 23.1619 32.9004 24.2139L33.332 32.3682C33.3564 32.8208 33.7468 33.1674 34.1992 33.1377C34.6436 33.1081 34.9827 32.7259 34.959 32.2812L34.5215 24.127C34.417 22.1799 32.7529 20.6858 30.8057 20.79C30.163 20.8245 29.5701 21.0292 29.0674 21.3574V11.6777C29.0675 10.1757 30.2851 8.95815 31.7871 8.95801Z" fill="#FFFAEB"/>
<path d="M24.2129 8.95801C23.2458 8.95801 22.3522 9.46874 21.8867 10.3164C20.7916 12.311 18.8015 16.121 17.834 19.126C16.602 22.9522 16.0005 26.3631 15.6934 29.293C15.4385 31.7242 15.2884 35.0567 15.2148 37.0967C15.1721 38.2787 14.7262 39.4109 13.9404 40.2949L11.2656 43.3037C11.0784 43.5143 11.1623 43.8479 11.4268 43.9453L20.6436 47.3398C20.8747 47.4249 21.1331 47.3294 21.2529 47.1143L23.7217 42.6719L25.2529 40.375C26.3482 38.7322 26.9326 36.8016 26.9326 34.8271V26.374L26.9102 24.4355L26.9111 24.418C26.9674 23.366 26.1595 22.4677 25.1074 22.4111C24.0553 22.3549 23.1561 23.1619 23.0996 24.2139L22.668 32.3682C22.6436 32.8208 22.2532 33.1674 21.8008 33.1377C21.3564 33.1081 21.0173 32.7259 21.041 32.2812L21.4785 24.127C21.583 22.1799 23.2471 20.6858 25.1943 20.79C25.837 20.8245 26.4299 21.0292 26.9326 21.3574V11.6777C26.9325 10.1757 25.7149 8.95815 24.2129 8.95801Z" fill="#FFFAEB"/>
</svg>
