<svg width="56" height="56" viewBox="0 0 56 56" fill="none" xmlns="http://www.w3.org/2000/svg">
<rect width="56" height="56" rx="14" fill="#E8FAF6"/>
<path d="M28 29.6396L28 19.5596" stroke="#44D8BB" stroke-width="2" stroke-linecap="round"/>
<path d="M42.4397 13.3135C42.8545 13.5255 43.0295 14.0063 42.848 14.4353C42.1381 16.1138 40.0924 20.1665 36.4404 21.4957C32.7885 22.8249 28.6164 21.0353 26.9936 20.2059C26.5788 19.9938 26.4038 19.5131 26.5853 19.084C27.2952 17.4055 29.3409 13.3528 32.9929 12.0236C36.6448 10.6944 40.8169 12.484 42.4397 13.3135Z" fill="#44D8BB"/>
<path d="M13.6208 13.3137C13.206 13.5258 13.031 14.0065 13.2125 14.4356C13.9225 16.1141 15.9681 20.1668 19.6201 21.496C23.272 22.8252 27.4442 21.0356 29.0669 20.2061C29.4817 19.9941 29.6567 19.5133 29.4752 19.0843C28.7653 17.4058 26.7196 13.3531 23.0677 12.0239C19.4157 10.6947 15.2436 12.4843 13.6208 13.3137Z" fill="#44D8BB"/>
<path d="M34.2861 27.4985L35.4521 27.5005C36.5532 27.5067 37.4614 27.5321 38.2002 27.6372C39.1987 27.7793 39.9803 28.0781 40.543 28.7485C41.1057 29.4192 41.2641 30.2413 41.2305 31.2495C41.1973 32.2439 40.973 33.5105 40.6875 35.1284L39.4941 41.8911C39.3192 42.8822 39.1811 43.669 38.9932 44.2905C38.8009 44.9261 38.5438 45.434 38.1055 45.853C37.6695 46.2697 37.1629 46.5029 36.5371 46.6646C35.9277 46.8219 35.1663 46.921 34.2109 47.0454C32.2504 47.3007 29.9118 47.5385 27.998 47.5386C26.0841 47.5386 23.7449 47.3007 21.7842 47.0454C20.8288 46.921 20.0674 46.822 19.458 46.6646C18.8323 46.5029 18.3256 46.2697 17.8896 45.853C17.4514 45.434 17.1942 44.9261 17.002 44.2905C16.814 43.6691 16.6768 42.8821 16.502 41.8911L15.3076 35.1284C15.0221 33.5105 14.7978 32.2439 14.7646 31.2495C14.731 30.2413 14.8895 29.4192 15.4521 28.7485C16.0148 28.0781 16.7964 27.7793 17.7949 27.6372C18.7799 27.4971 20.0661 27.4985 21.709 27.4985H34.2861Z" fill="#44D8BB" stroke="#E8FAF6"/>
</svg>
