<svg width="100" height="100" viewBox="0 0 100 100" fill="none" xmlns="http://www.w3.org/2000/svg">
<path d="M32.371 50.8938C45.7819 50.8938 56.6536 39.8598 56.6536 26.2486C56.6536 12.6375 45.7819 1.60352 32.371 1.60352C18.9601 1.60352 8.08838 12.6375 8.08838 26.2486C8.08838 39.8598 18.9601 50.8938 32.371 50.8938Z" fill="white" fill-opacity="0.08" stroke="#FDAD3C" stroke-width="1.875" stroke-linecap="round" stroke-linejoin="round"/>
<path d="M38.8052 2.48924C36.7584 1.91542 34.5971 1.61035 32.3713 1.61035C30.1456 1.61035 27.9843 1.92268 25.9375 2.48924L32.3713 5.77961L38.8052 2.48924Z" fill="#FDAD3C"/>
<path d="M13.1989 19.9142L12.1039 12.687C9.76371 16.2825 8.32522 20.5389 8.11768 25.1149L13.1918 19.9142H13.1989Z" fill="#FDAD3C"/>
<path d="M20.5218 42.7944L13.4009 41.6177C16.1061 45.0533 19.6916 47.7336 23.8138 49.317V49.3025L20.5146 42.7944H20.5218Z" fill="#FDAD3C"/>
<path d="M44.2244 42.7944L40.918 49.3025H40.9251C45.0474 47.7336 48.64 45.0533 51.3381 41.6177L44.2172 42.7944H44.2244Z" fill="#FDAD3C" stroke="white" stroke-width="1.41171" stroke-linecap="round" stroke-linejoin="round"/>
<path d="M56.6268 25.1149C56.4193 20.5316 54.9879 16.2825 52.6477 12.687L51.5527 19.9142L56.6268 25.1149Z" fill="#FDAD3C"/>
<path d="M32.3706 18.2522V5.78076" stroke="#FDAD3C" stroke-width="1.875" stroke-linecap="round" stroke-linejoin="round"/>
<path d="M24.8875 23.771L13.2007 19.9141" stroke="#FDAD3C" stroke-width="1.875" stroke-linecap="round" stroke-linejoin="round"/>
<path d="M27.7411 32.7046L20.52 42.7936" stroke="#FDAD3C" stroke-width="1.875" stroke-linecap="round" stroke-linejoin="round"/>
<path d="M37.002 32.7046L44.223 42.7936" stroke="#FDAD3C" stroke-width="1.875" stroke-linecap="round" stroke-linejoin="round"/>
<path d="M39.8584 23.771L51.5452 19.9141" stroke="#FDAD3C" stroke-width="1.875" stroke-linecap="round" stroke-linejoin="round"/>
<path d="M22.5952 23.0155L26.331 34.6807H38.4115L42.1472 23.0155L32.3712 15.8101L22.5952 23.0155Z" fill="#FDAD3C"/>
<path d="M77.158 67.6882L93.2878 70.8625C94.3104 71.0638 95.3076 70.3958 95.4465 69.3629C96.4766 61.7052 94.7397 54.2503 90.9805 48.0866C90.4869 47.2773 89.4419 47.0073 88.6571 47.5389C83.6576 50.9252 79.2023 58.394 77.1524 67.6808C77.1516 67.6844 77.1543 67.688 77.158 67.6882Z" fill="#FDAD3C" stroke="white" stroke-width="1.41171" stroke-linecap="round" stroke-linejoin="round"/>
<path d="M50.7078 62.5797L34.5559 59.5199C33.5319 59.3259 32.8552 58.3346 33.1108 57.3242C35.0062 49.8337 39.394 43.5616 45.1779 39.2408C45.9373 38.6735 47.0078 38.812 47.5382 39.5976C50.9173 44.602 52.2712 53.1927 50.7157 62.5749C50.7151 62.5786 50.7113 62.5809 50.7078 62.5797Z" fill="#FDAD3C" stroke="white" stroke-width="1.41171" stroke-linecap="round" stroke-linejoin="round"/>
<path d="M75.3538 67.3318C76.3573 67.5289 77.3309 66.8873 77.5885 65.8977C79.7283 57.6781 83.7563 51.0822 88.2742 47.8113C89.1923 47.1465 89.5275 45.8604 88.8286 44.968C84.6572 39.6412 78.8129 35.6258 71.8889 33.8342C70.88 33.5732 69.8866 34.247 69.6894 35.2702L64.2969 63.2477C64.1006 64.2658 64.7647 65.2509 65.7822 65.4509L75.3538 67.3318Z" fill="#FDAD3C" stroke="white" stroke-width="1.41171" stroke-linecap="round" stroke-linejoin="round"/>
<path d="M52.5151 62.9225C51.5104 62.7318 50.8457 61.7738 50.9751 60.7594C52.0498 52.3342 50.7674 44.7127 47.7923 39.9947C47.1877 39.036 47.3555 37.7175 48.3364 37.1495C54.1913 33.759 61.1105 32.2084 68.2037 33.1238C69.2372 33.2572 69.9083 34.2525 69.7104 35.2756L64.2977 63.2491C64.1007 64.2672 63.1175 64.9341 62.0988 64.7409L52.5151 62.9225Z" fill="#FDAD3C" stroke="white" stroke-width="1.41171" stroke-linecap="round" stroke-linejoin="round"/>
<path d="M76.889 68.9879C77.0281 68.2714 76.571 67.5723 75.8548 67.4316L65.7946 65.4547C64.7719 65.2537 63.7806 65.922 63.5834 66.9454L58.1907 94.9233C57.9946 95.9411 58.6583 96.9321 59.6854 97.072C66.138 97.951 72.4463 96.7759 77.9406 94.0236C78.9005 93.5427 79.1828 92.3344 78.7085 91.3712C76.0395 85.9507 75.2001 77.7483 76.889 68.9879Z" fill="#FDAD3C" stroke="white" stroke-width="1.41171" stroke-linecap="round" stroke-linejoin="round"/>
<path d="M50.473 63.8872C50.6107 63.1704 51.2952 62.6917 52.0123 62.8278L62.0852 64.739C63.1092 64.9333 63.7803 65.9226 63.5823 66.9458L58.1696 94.9199C57.9727 95.9376 56.9877 96.6101 55.9824 96.3575C49.6664 94.7706 44.2493 91.3311 40.175 86.731C39.4631 85.9273 39.6511 84.7008 40.4499 83.9834C44.9452 79.9465 48.7784 72.6464 50.473 63.8872Z" fill="#FDAD3C" stroke="white" stroke-width="1.41171" stroke-linecap="round" stroke-linejoin="round"/>
<path d="M94.735 73.0553C94.9882 72.0502 94.3189 71.0634 93.3019 70.8633L78.4608 67.9426C77.738 67.8003 77.0296 68.2633 76.8893 68.9865C75.1845 77.8296 76.0621 86.0985 78.7866 91.521C79.2386 92.4208 80.3645 92.6922 81.2056 92.1386C87.7156 87.8538 92.6887 81.1785 94.735 73.0553Z" fill="#FDAD3C" stroke="white" stroke-width="1.41171" stroke-linecap="round" stroke-linejoin="round"/>
<path d="M32.3962 61.0176C32.5355 59.9905 33.524 59.3239 34.5425 59.5168L49.4039 62.3322C50.1277 62.4694 50.6127 63.1628 50.4737 63.8863C48.7632 72.7283 44.8697 80.0758 40.3221 84.0939C39.5675 84.7606 38.4215 84.5933 37.8471 83.7664C33.4007 77.3657 31.2707 69.3186 32.3962 61.0176Z" fill="#FDAD3C" stroke="white" stroke-width="1.41171" stroke-linecap="round" stroke-linejoin="round"/>
<path d="M77.158 67.6882L93.2878 70.8625C94.3104 71.0638 95.3076 70.3958 95.4465 69.3629C96.4766 61.7052 94.7397 54.2503 90.9805 48.0866C90.4869 47.2773 89.4419 47.0073 88.6571 47.5389C83.6576 50.9252 79.2023 58.394 77.1524 67.6808C77.1516 67.6844 77.1543 67.688 77.158 67.6882Z" fill="#FDAD3C" stroke="white" stroke-width="1.875" stroke-linecap="round" stroke-linejoin="round"/>
<path d="M50.7078 62.5797L34.5559 59.5199C33.5319 59.3259 32.8552 58.3346 33.1108 57.3242C35.0062 49.8337 39.394 43.5616 45.1779 39.2408C45.9373 38.6735 47.0078 38.812 47.5382 39.5976C50.9173 44.602 52.2712 53.1927 50.7157 62.5749C50.7151 62.5786 50.7113 62.5809 50.7078 62.5797Z" fill="#FDAD3C" stroke="white" stroke-width="1.875" stroke-linecap="round" stroke-linejoin="round"/>
<path d="M75.3538 67.3318C76.3573 67.5289 77.3309 66.8873 77.5885 65.8977C79.7283 57.6781 83.7563 51.0822 88.2742 47.8113C89.1923 47.1465 89.5275 45.8604 88.8286 44.968C84.6572 39.6412 78.8129 35.6258 71.8889 33.8342C70.88 33.5732 69.8866 34.247 69.6894 35.2702L64.2969 63.2477C64.1006 64.2658 64.7647 65.2509 65.7822 65.4509L75.3538 67.3318Z" fill="#FDAD3C" stroke="white" stroke-width="1.875" stroke-linecap="round" stroke-linejoin="round"/>
<path d="M52.5151 62.9225C51.5104 62.7318 50.8457 61.7738 50.9751 60.7594C52.0498 52.3342 50.7674 44.7127 47.7923 39.9947C47.1877 39.036 47.3555 37.7175 48.3364 37.1495C54.1913 33.759 61.1105 32.2084 68.2037 33.1238C69.2372 33.2572 69.9083 34.2525 69.7104 35.2756L64.2977 63.2491C64.1007 64.2672 63.1175 64.9341 62.0988 64.7409L52.5151 62.9225Z" fill="#FDAD3C" stroke="white" stroke-width="1.875" stroke-linecap="round" stroke-linejoin="round"/>
<path d="M76.889 68.9879C77.0281 68.2714 76.571 67.5723 75.8548 67.4316L65.7946 65.4547C64.7719 65.2537 63.7806 65.922 63.5834 66.9454L58.1907 94.9233C57.9946 95.9411 58.6583 96.9321 59.6854 97.072C66.138 97.951 72.4463 96.7759 77.9406 94.0236C78.9005 93.5427 79.1828 92.3344 78.7085 91.3712C76.0395 85.9507 75.2001 77.7483 76.889 68.9879Z" fill="#FDAD3C" stroke="white" stroke-width="1.875" stroke-linecap="round" stroke-linejoin="round"/>
<path d="M50.473 63.8872C50.6107 63.1704 51.2952 62.6917 52.0123 62.8278L62.0852 64.739C63.1092 64.9333 63.7803 65.9226 63.5823 66.9458L58.1696 94.9199C57.9727 95.9376 56.9877 96.6101 55.9824 96.3575C49.6664 94.7706 44.2493 91.3311 40.175 86.731C39.4631 85.9273 39.6511 84.7008 40.4499 83.9834C44.9452 79.9465 48.7784 72.6464 50.473 63.8872Z" fill="#FDAD3C" stroke="white" stroke-width="1.875" stroke-linecap="round" stroke-linejoin="round"/>
<path d="M94.735 73.0553C94.9882 72.0502 94.3189 71.0634 93.3019 70.8633L78.4608 67.9426C77.738 67.8003 77.0296 68.2633 76.8893 68.9865C75.1845 77.8296 76.0621 86.0985 78.7866 91.521C79.2386 92.4208 80.3645 92.6922 81.2056 92.1386C87.7156 87.8538 92.6887 81.1785 94.735 73.0553Z" fill="#FDAD3C" stroke="white" stroke-width="1.875" stroke-linecap="round" stroke-linejoin="round"/>
<path d="M32.3962 61.0176C32.5355 59.9905 33.524 59.3239 34.5425 59.5168L49.4039 62.3322C50.1277 62.4694 50.6127 63.1628 50.4737 63.8863C48.7632 72.7283 44.8697 80.0758 40.3221 84.0939C39.5675 84.7606 38.4215 84.5933 37.8471 83.7664C33.4007 77.3657 31.2707 69.3186 32.3962 61.0176Z" fill="#FDAD3C" stroke="white" stroke-width="1.875" stroke-linecap="round" stroke-linejoin="round"/>
</svg>
