<svg width="56" height="56" viewBox="0 0 56 56" fill="none" xmlns="http://www.w3.org/2000/svg">
<rect width="56" height="56" rx="14" fill="#EFF3FF"/>
<path d="M40.3193 36.9858C40.3193 36.9861 40.3191 36.9863 40.3188 36.9863C40.3186 36.9863 40.3184 36.9865 40.3184 36.9868C40.3185 36.995 40.3193 37.0036 40.3193 37.0117C40.3189 40.7228 34.8037 43.6806 28 43.6807C21.1962 43.6807 15.6802 40.7228 15.6797 37.0117C15.6797 37.0036 15.6805 36.995 15.6807 36.9868C15.6807 36.9865 15.6804 36.9863 15.6802 36.9863C15.6799 36.9863 15.6797 36.9861 15.6797 36.9858V27.0684C15.6797 26.9229 15.83 26.8261 15.9624 26.8863L23.3613 30.249C25.0664 31.024 25.919 31.4115 26.8066 31.5645C27.5934 31.7 28.3979 31.7 29.1846 31.5645C30.0722 31.4114 30.9249 31.024 32.6299 30.249L40.0366 26.8824C40.169 26.8222 40.3193 26.919 40.3193 27.0645V36.9858Z" fill="#5C85FF"/>
<path d="M26.8296 11.217C27.609 11.084 28.4056 11.084 29.1851 11.217C30.0645 11.3672 30.9103 11.7477 32.6011 12.5081L45.8794 18.4788C47.3204 19.1268 48.0405 19.4514 48.2632 19.9016C48.4566 20.2927 48.4566 20.7517 48.2632 21.1428C48.0435 21.5867 47.3394 21.9071 45.938 22.5374V35.0833C45.938 35.702 45.4356 36.2034 44.8169 36.2034C44.1986 36.2029 43.6968 35.7017 43.6968 35.0833V23.5461L32.6011 28.5364C30.9103 29.2967 30.0646 29.6773 29.1851 29.8274C28.4056 29.9604 27.609 29.9604 26.8296 29.8274C25.95 29.6773 25.1045 29.2968 23.4136 28.5364L10.1353 22.5647C8.69458 21.9168 7.97421 21.5929 7.75146 21.1428C7.55803 20.7517 7.55803 20.2927 7.75146 19.9016C7.97412 19.4514 8.6942 19.1268 10.1353 18.4788L23.4136 12.5081C25.1045 11.7476 25.95 11.3672 26.8296 11.217Z" fill="#5C85FF"/>
</svg>
