<svg width="100" height="100" viewBox="0 0 100 100" fill="none" xmlns="http://www.w3.org/2000/svg">
<g clip-path="url(#clip0_625_4089)">
<path d="M21.5962 37.5375L36.2917 6.49889C37.4917 4.5029 39.661 3.28516 41.9964 3.28516C46.4088 3.28516 49.5934 7.46942 48.3934 11.6812L42.9934 35.7063H43.3349C46.7595 35.7063 49.5288 38.4623 49.5288 41.85V67.6606C49.5288 70.5996 48.6242 73.4654 46.9442 75.8918L33.7595 94.867C33.0559 95.8796 31.901 96.4835 30.6679 96.4835H11.0105C9.64732 96.4835 8.73619 95.0794 9.29153 93.8344L17.6546 75.086C18.5131 73.1633 18.9377 71.0849 18.9008 68.9882L18.5777 48.7444C18.5131 44.8073 19.5562 40.9252 21.5962 37.5375Z" fill="#FFE693" stroke="white" stroke-width="1.88228" stroke-linecap="round" stroke-linejoin="round"/>
<path d="M43.002 35.3994C39.5312 35.3994 36.7158 38.2243 36.7158 41.7069V61.398" fill="#FFE693"/>
<path d="M43.002 35.3994C39.5312 35.3994 36.7158 38.2243 36.7158 41.7069V61.398" stroke="white" stroke-width="2.5" stroke-linecap="round" stroke-linejoin="round"/>
</g>
<g clip-path="url(#clip1_625_4089)">
<path d="M78.4048 37.5375L63.7092 6.49889C62.5092 4.5029 60.34 3.28516 58.0046 3.28516C53.5922 3.28516 50.4076 7.46942 51.6076 11.6812L57.0076 35.7063H56.6661C53.2414 35.7063 50.4722 38.4623 50.4722 41.85V67.6606C50.4722 70.5996 51.3768 73.4654 53.0568 75.8918L66.2415 94.867C66.9451 95.8796 68.1 96.4835 69.333 96.4835H88.9904C90.3537 96.4835 91.2648 95.0794 90.7094 93.8344L82.3464 75.086C81.4879 73.1633 81.0633 71.0849 81.1002 68.9882L81.4233 48.7444C81.4879 44.8073 80.4448 40.9252 78.4048 37.5375Z" fill="#FFE693" stroke="white" stroke-width="1.88228" stroke-linecap="round" stroke-linejoin="round"/>
<path d="M56.9989 35.3994C60.4697 35.3994 63.2852 38.2243 63.2852 41.7069V61.398" fill="#FFE693"/>
<path d="M56.9989 35.3994C60.4697 35.3994 63.2852 38.2243 63.2852 41.7069V61.398" stroke="white" stroke-width="2.5" stroke-linecap="round" stroke-linejoin="round"/>
</g>
<defs>
<clipPath id="clip0_625_4089">
<rect width="42.3513" height="95.2612" fill="white" transform="translate(7.64893 2.36963)"/>
</clipPath>
<clipPath id="clip1_625_4089">
<rect width="42.3513" height="95.2612" fill="white" transform="matrix(-1 0 0 1 92.3521 2.36963)"/>
</clipPath>
</defs>
</svg>
