<svg width="56" height="56" viewBox="0 0 56 56" fill="none" xmlns="http://www.w3.org/2000/svg">
<rect width="56" height="56" rx="14" fill="#FFFAEB"/>
<path d="M31.8398 8.95801C32.8037 8.95802 33.6943 9.46758 34.1582 10.3125C35.2497 12.3005 37.233 16.0971 38.1973 19.0918C39.4251 22.9052 40.025 26.3046 40.3311 29.2246C40.5847 31.6451 40.7332 34.9614 40.8066 36.9951C40.8493 38.1774 41.296 39.3102 42.082 40.1943L44.7422 43.1865C44.9294 43.3972 44.8455 43.7307 44.5811 43.8281L35.3984 47.2109C35.1673 47.296 34.9088 47.1996 34.7891 46.9844L32.3291 42.5586L30.8086 40.2783C29.7132 38.6355 29.1289 36.7049 29.1289 34.7305V26.3154L29.1514 24.3838L29.1504 24.3662C29.0942 23.3176 29.8995 22.4215 30.9482 22.3652C31.9969 22.3092 32.893 23.1136 32.9492 24.1621L33.3799 32.2891C33.4041 32.7402 33.7931 33.0854 34.2441 33.0557C34.6869 33.0261 35.0236 32.6452 35 32.2021L34.5645 24.0752C34.4602 22.1348 32.802 20.6461 30.8613 20.75C30.2208 20.7844 29.6298 20.9883 29.1289 21.3154V11.6689C29.1289 10.1718 30.3427 8.95801 31.8398 8.95801Z" fill="#FFCE2D"/>
<path d="M24.1699 8.95801C23.206 8.95802 22.3155 9.46758 21.8516 10.3125C20.7601 12.3005 18.7767 16.0971 17.8125 19.0918C16.5847 22.9052 15.9848 26.3046 15.6787 29.2246C15.425 31.6451 15.2765 34.9614 15.2031 36.9951C15.1605 38.1774 14.7138 39.3102 13.9277 40.1943L11.2676 43.1865C11.0803 43.3972 11.1642 43.7307 11.4287 43.8281L20.6113 47.2109C20.8425 47.296 21.101 47.1996 21.2207 46.9844L23.6807 42.5586L25.2012 40.2783C26.2965 38.6355 26.8808 36.7049 26.8809 34.7305V27.4062L26.8457 24.3828L26.8467 24.3652C26.9028 23.3167 26.0975 22.4215 25.0488 22.3652C24.0003 22.3091 23.1044 23.1129 23.0479 24.1611L22.6172 32.2891C22.593 32.7403 22.2039 33.0844 21.7529 33.0547C21.3101 33.0251 20.9734 32.6453 20.9971 32.2021L21.4326 24.0752C21.5368 22.1348 23.195 20.6461 25.1357 20.75C25.7816 20.7847 26.3773 20.9914 26.8809 21.3232V11.6689C26.8809 10.1718 25.6671 8.95801 24.1699 8.95801Z" fill="#FFCE2D"/>
</svg>
