<svg width="56" height="56" viewBox="0 0 56 56" fill="none" xmlns="http://www.w3.org/2000/svg">
<rect width="56" height="56" rx="14" fill="#BD69F6"/>
<path d="M37.9927 30.0587C36.5768 30.4323 35.0945 30.4847 33.6597 30.2183L17.2612 44.7943C16.8654 45.1461 16.2642 45.1286 15.8898 44.7542L11.2502 40.1145C10.8758 39.7401 10.8577 39.1381 11.2094 38.7424L25.7857 22.3426C25.5199 20.9087 25.5732 19.4272 25.9465 18.0122L37.9927 30.0587ZM25.517 26.5059L23.5263 28.4967L27.5085 32.4791L29.4993 30.4883L25.517 26.5059ZM42.4404 13.5637C46.2891 17.4126 46.2891 23.6527 42.4404 27.5016C42.3863 27.5557 42.3296 27.6066 42.2746 27.6591L42.4404 27.8248C42.9012 28.2861 42.9015 29.0334 42.4404 29.4946C41.9793 29.9556 41.2319 29.9554 40.7707 29.4946L40.3646 29.0885L40.364 29.0892L26.916 15.6408L26.9167 15.6401L26.5121 15.2355C26.0509 14.7742 26.0502 14.0263 26.5114 13.5651C26.9726 13.1038 27.7205 13.1045 28.1818 13.5657L28.3454 13.7294C28.3979 13.6745 28.4488 13.6177 28.5029 13.5637C32.3515 9.71486 38.5916 9.71504 42.4404 13.5637Z" fill="#FAF2FF"/>
<path d="M33.7567 33.8862C34.5483 34.7192 35.0092 35.8129 35.0531 36.9612L35.2318 41.6487C35.2567 42.3005 34.7487 42.8488 34.0969 42.8737C33.4451 42.8985 32.8969 42.3905 32.872 41.7387L32.6932 37.0512C32.6713 36.477 32.4408 35.9302 32.045 35.5137L30.834 34.2391L32.5456 32.6128L33.7567 33.8862Z" fill="#FAF2FF"/>
</svg>
