<svg width="56" height="56" viewBox="0 0 56 56" fill="none" xmlns="http://www.w3.org/2000/svg">
<rect width="56" height="56" rx="14" fill="#5C85FF"/>
<path d="M40.3193 36.9849C40.3193 36.9851 40.3191 36.9854 40.3188 36.9854C40.3186 36.9854 40.3184 36.9856 40.3184 36.9858C40.3185 36.994 40.3193 37.0026 40.3193 37.0107C40.3189 40.7218 34.8037 43.6795 28 43.6797C21.1961 43.6797 15.6801 40.7219 15.6797 37.0107C15.6797 37.0024 15.6796 36.9937 15.6797 36.9854V27.0674C15.6797 26.922 15.83 26.8252 15.9624 26.8854L23.3604 30.248C25.0657 31.0232 25.9189 31.4105 26.8066 31.5635C27.5933 31.699 28.3979 31.699 29.1846 31.5635C30.0721 31.4104 30.9249 31.0231 32.6299 30.248L40.0366 26.8815C40.169 26.8213 40.3193 26.9181 40.3193 27.0635V36.9849Z" fill="#EFF3FF"/>
<path d="M26.8276 11.2163C27.6071 11.0833 28.4036 11.0833 29.1831 11.2163C30.0625 11.3665 30.9084 11.746 32.5991 12.5063L45.8774 18.478C47.3179 19.1258 48.0384 19.4499 48.2612 19.8999C48.4546 20.2909 48.4545 20.75 48.2612 21.1411C48.0415 21.5855 47.3369 21.9072 45.9331 22.5386V35.0815C45.9331 35.7001 45.4315 36.2014 44.813 36.2017C44.1944 36.2015 43.6929 35.7002 43.6929 35.0815V23.5464L32.5991 28.5356C30.9084 29.296 30.0626 29.6755 29.1831 29.8257C28.4037 29.9587 27.6071 29.9587 26.8276 29.8257C25.9481 29.6756 25.1024 29.296 23.4116 28.5356L10.1333 22.564C8.69229 21.9159 7.97216 21.5913 7.74951 21.1411C7.5562 20.75 7.55612 20.291 7.74951 19.8999C7.97243 19.4499 8.69282 19.1258 10.1333 18.478L23.4116 12.5063C25.1024 11.746 25.9481 11.3664 26.8276 11.2163Z" fill="#EFF3FF"/>
</svg>
