<svg width="56" height="56" viewBox="0 0 56 56" fill="none" xmlns="http://www.w3.org/2000/svg">
<rect width="56" height="56" rx="14" fill="#44D8BB"/>
<path d="M28 29.6398L28 19.5598" stroke="#E8FAF6" stroke-width="2" stroke-linecap="round"/>
<path d="M42.4407 13.314C42.8555 13.526 43.0305 14.0068 42.849 14.4358C42.1391 16.1143 40.0934 20.167 36.4414 21.4962C32.7895 22.8254 28.6174 21.0358 26.9946 20.2064C26.5798 19.9943 26.4048 19.5136 26.5863 19.0845C27.2962 17.406 29.3419 13.3533 32.9939 12.0241C36.6458 10.6949 40.8179 12.4845 42.4407 13.314Z" fill="#E8FAF6"/>
<path d="M13.6218 13.314C13.207 13.526 13.032 14.0068 13.2135 14.4358C13.9234 16.1143 15.9691 20.167 19.6211 21.4962C23.273 22.8254 27.4451 21.0358 29.0679 20.2064C29.4827 19.9943 29.6577 19.5136 29.4762 19.0845C28.7663 17.406 26.7206 13.3533 23.0686 12.0241C19.4167 10.6949 15.2446 12.4845 13.6218 13.314Z" fill="#E8FAF6"/>
<path d="M34.2871 27.4998C35.93 27.4998 37.2162 27.4983 38.2012 27.6384C39.1997 27.7805 39.9813 28.0793 40.5439 28.7498C41.1066 29.4204 41.265 30.2425 41.2314 31.2507C41.1983 32.2451 40.974 33.5117 40.6885 35.1296L39.4951 41.8923C39.3202 42.8834 39.1821 43.6703 38.9941 44.2917C38.8019 44.9274 38.5447 45.4352 38.1064 45.8542C37.6705 46.271 37.1638 46.5041 36.5381 46.6658C35.9287 46.8232 35.1673 46.9222 34.2119 47.0466C32.2514 47.3019 29.9128 47.5398 27.999 47.5398C26.0851 47.5398 23.7459 47.3019 21.7852 47.0466C20.8297 46.9222 20.0684 46.8232 19.459 46.6658C18.8333 46.5041 18.3266 46.271 17.8906 45.8542C17.4524 45.4352 17.1952 44.9273 17.0029 44.2917C16.815 43.6703 16.6778 42.8834 16.5029 41.8923L15.3086 35.1296C15.0231 33.5117 14.7988 32.2451 14.7656 31.2507C14.732 30.2425 14.8904 29.4204 15.4531 28.7498C16.0158 28.0793 16.7974 27.7805 17.7959 27.6384C18.7809 27.4983 20.0671 27.4998 21.71 27.4998H34.2871Z" fill="#E8FAF6" stroke="#44D8BB"/>
</svg>
