<svg width="56" height="56" viewBox="0 0 56 56" fill="none" xmlns="http://www.w3.org/2000/svg">
<rect width="56" height="56" rx="14" fill="#FF9233"/>
<path d="M22.6672 45.1613C22.5933 45.4373 22.3029 45.5959 22.0335 45.5006C18.398 44.215 15.405 41.848 13.324 38.8654C13.191 38.6748 13.2134 38.4186 13.3684 38.2455C15.5933 35.7602 17.6278 32.0138 18.9857 27.6013C19.0656 27.3418 19.3357 27.1898 19.5979 27.2601L26.454 29.0971C26.7207 29.1686 26.879 29.4428 26.8075 29.7095L22.6672 45.1613ZM36.0075 31.657C36.2697 31.7273 36.4276 31.9939 36.367 32.2586C35.3369 36.7583 35.2242 41.0194 35.9079 44.2838C35.9555 44.5112 35.8468 44.7443 35.6364 44.8428C32.343 46.3854 28.5681 46.9399 24.7769 46.2357C24.4959 46.1835 24.3238 45.901 24.3977 45.625L28.538 30.1732C28.6095 29.9065 28.8837 29.7482 29.1504 29.8197L36.0075 31.657ZM16.8999 26.5371C17.1712 26.6098 17.3297 26.8921 17.2466 27.1605C16.0119 31.1486 14.2241 34.4777 12.3206 36.724C12.2379 36.8216 12.0801 36.8005 12.0223 36.6863C10.2986 33.2799 9.64902 29.3162 10.3883 25.3352C10.4405 25.0542 10.723 24.882 10.999 24.956L16.8999 26.5371ZM44.6053 33.9608C44.8814 34.0348 45.0399 34.3251 44.9446 34.5945C43.5941 38.4124 41.0488 41.52 37.8521 43.6082C37.7454 43.6779 37.6006 43.6171 37.5779 43.4917C37.0525 40.5946 37.167 36.8171 38.0915 32.7458C38.1537 32.4719 38.4321 32.3067 38.7034 32.3794L44.6053 33.9608ZM18.4915 13.6938C19.0169 16.591 18.9004 20.3687 17.9755 24.4402C17.9133 24.7141 17.6349 24.8793 17.3636 24.8066L11.4627 23.2255C11.1867 23.1515 11.0281 22.8612 11.1234 22.5918C12.4736 18.774 15.0176 15.6651 18.2138 13.5768C18.3213 13.5066 18.4686 13.5675 18.4915 13.6938ZM27.53 27.0131C27.4585 27.2798 27.1844 27.4381 26.9176 27.3666L20.0619 25.5296C19.7996 25.4593 19.6417 25.1924 19.7025 24.9277C20.738 20.4186 20.8448 16.1694 20.1587 12.8998C20.111 12.6724 20.2197 12.4393 20.4301 12.3408C23.7238 10.7981 27.4999 10.2451 31.2914 10.9495C31.5724 11.0017 31.7446 11.2842 31.6706 11.5602L27.53 27.0131ZM33.4011 12.0239C33.4751 11.7479 33.7654 11.5893 34.0348 11.6846C37.6704 12.9704 40.6631 15.3381 42.7441 18.3209C42.877 18.5115 42.8546 18.7677 42.6996 18.9408C40.4712 21.4292 38.4405 25.1628 37.0831 29.5849C37.0034 29.8445 36.7332 29.9967 36.4709 29.9264L29.6141 28.0891C29.3474 28.0177 29.1891 27.7435 29.2605 27.4768L33.4011 12.0239ZM43.7488 20.4615C43.8315 20.3639 43.9875 20.3834 44.0452 20.4975C45.7697 23.9045 46.4194 27.8692 45.6797 31.8511C45.6276 32.1321 45.3451 32.3042 45.069 32.2303L39.1671 30.6489C38.8957 30.5761 38.7373 30.2939 38.8204 30.0255C40.0554 26.0371 41.8451 22.7079 43.7488 20.4615Z" fill="#FFF7EB"/>
</svg>
