<svg width="56" height="56" viewBox="0 0 56 56" fill="none" xmlns="http://www.w3.org/2000/svg">
<rect width="56" height="56" rx="14" fill="#FAF2FF"/>
<path d="M37.9923 30.0583C36.5764 30.432 35.0941 30.4842 33.6593 30.2179L17.2607 44.7953C16.8651 45.1467 16.2637 45.1293 15.8894 44.7552L11.2491 40.1148C10.875 39.7404 10.8576 39.139 11.209 38.7433L25.7859 22.3429C25.5202 20.9089 25.5734 19.4275 25.9468 18.0125L37.9923 30.0583ZM25.5173 26.5062L23.5265 28.497L27.5088 32.4794L29.4996 30.4885L25.5173 26.5062ZM42.4406 13.564C46.2894 17.4128 46.2893 23.653 42.4406 27.5019C42.3869 27.5557 42.3303 27.6064 42.2756 27.6587L42.4413 27.8244C42.9025 28.2857 42.9025 29.0343 42.4413 29.4955C41.9801 29.9565 41.2321 29.9559 40.771 29.4948L40.3642 29.0881L40.3636 29.0888L26.9163 15.6411L26.917 15.6404L26.5124 15.2358C26.0514 14.7746 26.0515 14.0272 26.5124 13.566C26.9735 13.1048 27.7215 13.1043 28.1827 13.5653L28.3464 13.729C28.3986 13.6743 28.4494 13.6177 28.5031 13.564C32.3519 9.71516 38.5919 9.71509 42.4406 13.564Z" fill="#BD69F6"/>
<path d="M33.7576 33.8864C34.5493 34.7194 35.0102 35.8131 35.054 36.9615L35.2328 41.649C35.2577 42.3008 34.7497 42.849 34.0979 42.8739C33.4461 42.8988 32.8979 42.3908 32.873 41.7389L32.6942 37.0514C32.6723 36.4773 32.4418 35.9304 32.046 35.5139L30.835 34.2394L32.5466 32.613L33.7576 33.8864Z" fill="#BD69F6"/>
</svg>
