<svg width="100" height="100" viewBox="0 0 100 100" fill="none" xmlns="http://www.w3.org/2000/svg">
<path d="M84.4149 27.014L63.0339 47.4535L40.225 45.2137H31.4479C27.824 45.2137 24.3015 46.4589 21.4169 48.7594L6.63144 61.4816C5.80031 62.1968 5.32227 63.2387 5.32227 64.3352V89.2692C5.32227 90.7318 6.91751 91.6356 8.17211 90.8838L18.8149 84.5058C21.6053 82.9189 24.7219 82.0913 27.8964 82.0913H55.0178C60.0623 82.0913 64.8095 79.5933 67.8246 75.3566L95.4606 36.52C96.2506 35.4115 96.6782 34.0676 96.6782 32.6781C96.6782 26.0118 89.1187 22.5115 84.4149 27.0064V27.014Z" fill="#FFBBBB" stroke="white" stroke-width="1.88228" stroke-linecap="round" stroke-linejoin="round"/>
<path d="M35.0928 44.9019H60.3732C62.2648 44.9019 64.084 45.7078 65.4249 47.1416C68.2153 50.1253 68.2153 54.9612 65.4249 57.945C64.084 59.3787 62.2648 60.1847 60.3732 60.1847H37.3468" fill="#FFBBBB"/>
<path d="M35.0928 44.9019H60.3732C62.2648 44.9019 64.084 45.7078 65.4249 47.1416C68.2153 50.1253 68.2153 54.9612 65.4249 57.945C64.084 59.3787 62.2648 60.1847 60.3732 60.1847H37.3468" stroke="white" stroke-width="2.5" stroke-linecap="round" stroke-linejoin="round"/>
<path d="M57.8948 7.40918C54.7376 7.40918 51.944 9.12526 50.1909 11.7719C49.9874 12.079 49.5172 12.079 49.3137 11.7719C47.5606 9.12526 44.767 7.40918 41.6099 7.40918C36.2971 7.40918 31.9897 12.2618 31.9897 18.2515C31.9897 27.8593 45.4105 35.8878 48.9205 37.8233C49.4436 38.1117 50.061 38.1117 50.5841 37.8233C54.0941 35.8878 67.5149 27.8593 67.5149 18.2515C67.5149 12.2657 63.2075 7.40918 57.8948 7.40918Z" fill="#FFBBBB"/>
</svg>
