<svg width="100" height="100" viewBox="0 0 100 100" fill="none" xmlns="http://www.w3.org/2000/svg">
<g clip-path="url(#clip0_625_4090)">
<path d="M76.5187 32.4326C69.8189 32.4326 63.9251 36.2416 60.4056 42.0379C60.2143 42.353 59.7473 42.353 59.556 42.0379C56.0365 36.2416 50.1427 32.4326 43.4429 32.4326C32.6523 32.4326 23.9038 42.2992 23.9038 54.4775C23.9038 74.9169 53.7444 91.8408 59.1473 94.7375C59.6743 95.0201 60.2873 95.0201 60.8143 94.7375C66.2172 91.8408 96.0578 74.9169 96.0578 54.4775C96.0578 42.3072 87.3093 32.4326 76.5187 32.4326Z" fill="#9FDCD6"/>
<path d="M28.4791 26.2525V5.5752C28.4791 5.33529 28.3688 5.11037 28.1776 4.96792C27.9864 4.82548 27.7437 4.78799 27.5157 4.86296L11.1512 10.2834C10.8497 10.3809 10.6438 10.6733 10.6438 10.9957V30.6758C8.71681 29.9561 6.11322 30.6758 4.17155 32.6626C2.99478 33.8621 2.22253 35.3466 2.00924 36.831C1.7886 38.3604 2.17105 39.7174 3.08304 40.6546C3.84794 41.4343 4.88497 41.8091 6.0176 41.8091C7.65037 41.8091 9.47436 41.0294 10.9232 39.545C13.3356 37.0859 13.8505 33.5922 12.1147 31.6729V16.3037L13.5195 15.8389L27.0082 11.3705V25.2628C25.0812 24.5431 22.485 25.2628 20.536 27.2496C18.0721 29.7611 17.5867 33.3448 19.4475 35.2416C20.2123 36.0213 21.2494 36.3962 22.382 36.3962C24.0148 36.3962 25.8388 35.6165 27.2877 34.132C29.7 31.6729 30.2149 28.1792 28.4791 26.26V26.2525Z" fill="#9FDCD6"/>
</g>
<defs>
<clipPath id="clip0_625_4090">
<rect width="94.1139" height="90.3494" fill="white" transform="translate(1.94336 4.82568)"/>
</clipPath>
</defs>
</svg>
