<svg width="100" height="100" viewBox="0 0 100 100" fill="none" xmlns="http://www.w3.org/2000/svg">
<g clip-path="url(#clip0_625_4177)">
<path d="M50.3654 6.74805C49.234 6.74805 48.3639 7.71638 48.5469 8.83291C49.8725 16.9224 55.7975 46.2712 73.2188 56.1215C73.9817 56.5528 74.852 56.748 75.7284 56.748H90.469C91.5085 56.748 92.3513 55.9053 92.3513 54.8658V13.9259C92.3513 9.96353 88.8001 6.74805 84.4241 6.74805H50.3654Z" fill="#CDF1A5"/>
<path d="M49.6356 6.74805C50.767 6.74805 51.6371 7.71638 51.4541 8.83291C50.1285 16.9224 44.2035 46.2712 26.7822 56.1215C26.0193 56.5528 25.1489 56.7481 24.2725 56.7481H9.53201C8.49245 56.7481 7.64972 55.9053 7.64972 54.8658V13.9259C7.64972 9.96353 11.2009 6.74805 15.5769 6.74805H49.6356Z" fill="#CDF1A5"/>
<path d="M90.4702 59.4653C91.5097 59.4653 92.3525 60.3081 92.3525 61.3476V83.5466C92.3525 88.7443 88.1388 92.958 82.9411 92.958H63.5008C62.2922 92.958 61.4063 91.8416 61.7201 90.6745C63.3303 84.6851 68.2936 68.4532 76.5715 60.7147C77.4849 59.8608 78.7137 59.4653 79.9641 59.4653H90.4702Z" fill="#CDF1A5"/>
<path d="M9.53324 59.4653C8.49369 59.4653 7.65096 60.3081 7.65096 61.3476V83.5466C7.65096 88.7443 11.8646 92.958 17.0624 92.958H36.5026C37.7112 92.958 38.5971 91.8416 38.2833 90.6745C36.6731 84.6851 31.7098 68.4532 23.432 60.7147C22.5185 59.8608 21.2897 59.4653 20.0393 59.4653H9.53324Z" fill="#CDF1A5"/>
</g>
<defs>
<clipPath id="clip0_625_4177">
<rect width="84.7025" height="86.5047" fill="white" transform="translate(7.64893 6.74805)"/>
</clipPath>
</defs>
</svg>
