<svg width="27" height="27" viewBox="0 0 27 27" fill="none" xmlns="http://www.w3.org/2000/svg">
<rect x="0.5" y="0.5" width="26" height="26" rx="13" stroke="#FF7543"/>
<path d="M18.7254 11.7209C18.7254 11.7209 18.3438 16.454 18.1225 18.4478C18.017 19.4 17.4288 19.958 16.4653 19.9756C14.6318 20.0086 12.7962 20.0107 10.9634 19.9721C10.0364 19.9531 9.45802 19.3881 9.35471 18.4527C9.13194 16.4414 8.75244 11.7209 8.75244 11.7209" stroke="#FF7543" stroke-width="1.2" stroke-linecap="round" stroke-linejoin="round"/>
<path d="M19.6976 9.4519H7.78003" stroke="#FF7543" stroke-width="1.2" stroke-linecap="round" stroke-linejoin="round"/>
<path d="M17.4011 9.4519C16.8495 9.4519 16.3744 9.06186 16.2662 8.52143L16.0954 7.66687C15.99 7.27261 15.633 6.99994 15.2261 6.99994H12.2512C11.8443 6.99994 11.4873 7.27261 11.3819 7.66687L11.2111 8.52143C11.1029 9.06186 10.6278 9.4519 10.0762 9.4519" stroke="#FF7543" stroke-width="1.2" stroke-linecap="round" stroke-linejoin="round"/>
</svg>
