<svg width="32" height="32" viewBox="0 0 32 32" fill="none" xmlns="http://www.w3.org/2000/svg">
<circle cx="16" cy="16" r="15.75" fill="#FF5414" stroke="#C5C5C5" stroke-width="0.5"/>
<path fill-rule="evenodd" clip-rule="evenodd" d="M7.62971 24.6134L11.6582 23.9581C11.7284 23.9467 11.793 23.9137 11.8429 23.8635L21.2085 14.4985C21.2744 14.4325 21.2744 14.3257 21.2085 14.2593L17.7415 10.7926C17.6756 10.7267 17.5687 10.7267 17.5024 10.7926L8.1376 20.158C8.08732 20.2083 8.05436 20.2729 8.04296 20.3427L7.3876 24.3709C7.36436 24.5133 7.48774 24.6367 7.63013 24.6134H7.62971Z" fill="white"/>
<path d="M21.568 13.9L18.1012 10.4335C18.0352 10.3675 18.0352 10.2605 18.1012 10.1945L20.3134 7.98245C20.6433 7.65262 21.1787 7.65262 21.5085 7.98245L24.0192 10.4929C24.349 10.8228 24.349 11.3582 24.0192 11.688L21.807 13.9C21.741 13.9661 21.634 13.9661 21.568 13.9Z" fill="white"/>
</svg>
