<svg width="100" height="100" viewBox="0 0 100 100" fill="none" xmlns="http://www.w3.org/2000/svg">
<circle cx="50" cy="49.5" r="47.2188" fill="white" stroke="#C5C5C5" stroke-width="1.5625"/>
<path fill-rule="evenodd" clip-rule="evenodd" d="M24.8896 75.3394L36.9754 73.3734C37.1858 73.3392 37.3798 73.2404 37.5294 73.0895L65.6268 44.9951C65.8246 44.7974 65.8246 44.4767 65.6268 44.2777L55.2257 33.8778C55.028 33.6801 54.7073 33.6801 54.5083 33.8778L26.4134 61.9735C26.2625 62.1243 26.1636 62.3182 26.1294 62.5274L24.1633 74.6118C24.0936 75.039 24.4637 75.4091 24.8909 75.3394H24.8896Z" fill="#4B4B4B"/>
<path d="M66.7054 43.2001L56.3049 32.8007C56.1068 32.6026 56.1068 32.2818 56.3049 32.0837L62.9416 25.4477C63.9312 24.4583 65.5375 24.4583 66.527 25.4477L74.0592 32.9791C75.0488 33.9685 75.0488 35.5747 74.0592 36.5641L67.4225 43.2001C67.2244 43.3982 66.9035 43.3982 66.7054 43.2001Z" fill="#4B4B4B"/>
</svg>
