<svg width="56" height="56" viewBox="0 0 56 56" fill="none" xmlns="http://www.w3.org/2000/svg">
<path d="M16.6117 36.4329C16.8835 35.0206 18.1194 34 19.5576 34H36.4424C37.8806 34 39.1165 35.0206 39.3883 36.4329L40.8091 43.8134C41.2865 46.2935 38.6728 48.2176 36.4465 47.0249L30.8333 44.0179C29.0634 43.0697 26.9366 43.0697 25.1667 44.0179L19.5535 47.0249C17.3272 48.2176 14.7135 46.2935 15.1909 43.8134L16.6117 36.4329Z" fill="#3DBBFF"/>
<circle cx="28" cy="25" r="19" fill="#F2FBFF"/>
<circle cx="28" cy="25" r="19" fill="#F2FBFF"/>
<circle cx="28" cy="25" r="17" fill="#3DBBFF"/>
<path d="M27.5085 15.3331C27.6769 14.8762 28.3231 14.8762 28.4915 15.3331L30.3242 20.3042C30.4116 20.5412 30.6556 20.6821 30.9045 20.6393L36.1261 19.7409C36.6059 19.6584 36.929 20.2179 36.6175 20.5922L33.2288 24.665C33.0672 24.8591 33.0672 25.1409 33.2288 25.335L36.6175 29.4078C36.929 29.7821 36.6059 30.3416 36.1261 30.2591L30.9045 29.3607C30.6556 29.3179 30.4116 29.4588 30.3242 29.6958L28.4915 34.6669C28.3231 35.1238 27.6769 35.1238 27.5085 34.6669L25.6758 29.6958C25.5884 29.4588 25.3444 29.3179 25.0955 29.3607L19.8739 30.2591C19.3941 30.3416 19.071 29.7821 19.3825 29.4078L22.7712 25.335C22.9328 25.1409 22.9328 24.8591 22.7712 24.665L19.3825 20.5922C19.071 20.2179 19.3941 19.6584 19.8739 19.7409L25.0955 20.6393C25.3444 20.6821 25.5884 20.5412 25.6758 20.3042L27.5085 15.3331Z" fill="#F2FBFF"/>
</svg>
