<svg width="15" height="14" viewBox="0 0 15 14" fill="none" xmlns="http://www.w3.org/2000/svg">
<path d="M7.27062 12.5838H7.7297C9.30878 12.5838 10.098 12.5838 10.612 12.0804C11.1253 11.5764 11.1778 10.7504 11.2828 9.099L11.4345 6.71841C11.4916 5.82183 11.5202 5.37383 11.2624 5.08975C11.0045 4.80566 10.57 4.80566 9.69962 4.80566H5.3007C4.43095 4.80566 3.99578 4.80566 3.73795 5.08975C3.48012 5.37383 3.50928 5.82183 3.56587 6.71841L3.71753 9.09841C3.82253 10.751 3.87503 11.5764 4.38837 12.0804C4.9017 12.5844 5.69153 12.5838 7.27062 12.5838Z" fill="#FF9F7C"/>
<path d="M2.25 3.80551C2.25 3.5751 2.44075 3.38901 2.67583 3.38901H5.46883C5.47233 2.89785 5.526 2.22526 6.0125 1.75976C6.41325 1.37754 6.94621 1.16499 7.5 1.16651C8.05379 1.16499 8.58675 1.37754 8.9875 1.75976C9.474 2.22526 9.52767 2.89785 9.53117 3.38901H12.3242C12.5592 3.38901 12.75 3.57568 12.75 3.80551C12.7495 3.86087 12.7381 3.91558 12.7165 3.96652C12.6948 4.01746 12.6633 4.0636 12.6237 4.10231C12.5841 4.14102 12.5373 4.17152 12.4859 4.19206C12.4345 4.2126 12.3795 4.22278 12.3242 4.22201H2.67583C2.62048 4.22278 2.56553 4.2126 2.51412 4.19206C2.46272 4.17152 2.41588 4.14102 2.37631 4.10231C2.33674 4.0636 2.3052 4.01746 2.28353 3.96652C2.26185 3.91558 2.25046 3.86087 2.25 3.80551Z" fill="#FF9F7C"/>
</svg>
