<svg width="12" height="12" viewBox="0 0 12 12" fill="none" xmlns="http://www.w3.org/2000/svg">
<path fill-rule="evenodd" clip-rule="evenodd" d="M9.40387 4.82715C9.40387 4.82715 9.15226 7.94797 9.00629 9.26257C8.93679 9.89044 8.54894 10.2584 7.91366 10.2699C6.70471 10.2917 5.49438 10.2931 4.2859 10.2676C3.67471 10.2551 3.29335 9.88256 3.22524 9.26581C3.07835 7.93963 2.82812 4.82715 2.82812 4.82715" fill="#C5C5C5"/>
<path d="M9.40387 4.82715C9.40387 4.82715 9.15226 7.94797 9.00629 9.26257C8.93679 9.89044 8.54894 10.2584 7.91366 10.2699C6.70471 10.2917 5.49438 10.2931 4.2859 10.2676C3.67471 10.2551 3.29335 9.88256 3.22524 9.26581C3.07835 7.93963 2.82812 4.82715 2.82812 4.82715H9.40387Z" stroke="#C5C5C5" stroke-width="1.02857" stroke-linecap="round" stroke-linejoin="round"/>
<path d="M10.0434 3.33081H2.18555" stroke="#C5C5C5" stroke-width="1.02857" stroke-linecap="round" stroke-linejoin="round"/>
<path fill-rule="evenodd" clip-rule="evenodd" d="M8.52897 3.33107C8.16522 3.33107 7.85198 3.0739 7.78062 2.71756L7.66802 2.1541C7.59851 1.89414 7.36312 1.71436 7.09482 1.71436H5.13336C4.86507 1.71436 4.62967 1.89414 4.56017 2.1541L4.44757 2.71756C4.37621 3.0739 4.06297 3.33107 3.69922 3.33107" fill="#C5C5C5"/>
<path d="M8.52897 3.33107C8.16522 3.33107 7.85198 3.0739 7.78062 2.71756L7.66802 2.1541C7.59851 1.89414 7.36312 1.71436 7.09482 1.71436H5.13336C4.86507 1.71436 4.62967 1.89414 4.56017 2.1541L4.44757 2.71756C4.37621 3.0739 4.06297 3.33107 3.69922 3.33107" stroke="#C5C5C5" stroke-width="1.02857" stroke-linecap="round" stroke-linejoin="round"/>
</svg>
