<svg width="24" height="24" viewBox="0 0 24 24" fill="none" xmlns="http://www.w3.org/2000/svg">
<path d="M11.9978 9.3321C10.5289 9.3321 9.3301 10.5309 9.3301 11.9999C9.3301 13.4688 10.5289 14.6676 11.9978 14.6676C13.4668 14.6676 14.6656 13.4688 14.6656 11.9999C14.6656 10.5309 13.4668 9.3321 11.9978 9.3321ZM19.9991 11.9999C19.9991 10.8951 20.0091 9.80041 19.9471 8.69768C19.885 7.41684 19.5928 6.28009 18.6562 5.34348C17.7176 4.40486 16.5829 4.11467 15.302 4.05263C14.1973 3.99059 13.1026 4.0006 11.9999 4.0006C10.8951 4.0006 9.80041 3.99059 8.69768 4.05263C7.41684 4.11467 6.28009 4.40686 5.34348 5.34348C4.40486 6.28209 4.11467 7.41684 4.05263 8.69768C3.99059 9.80241 4.0006 10.8971 4.0006 11.9999C4.0006 13.1026 3.99059 14.1993 4.05263 15.302C4.11467 16.5829 4.40686 17.7196 5.34348 18.6562C6.28209 19.5948 7.41684 19.885 8.69768 19.9471C9.80241 20.0091 10.8971 19.9991 11.9999 19.9991C13.1046 19.9991 14.1993 20.0091 15.302 19.9471C16.5829 19.885 17.7196 19.5928 18.6562 18.6562C19.5948 17.7176 19.885 16.5829 19.9471 15.302C20.0111 14.1993 19.9991 13.1046 19.9991 11.9999ZM11.9978 16.1045C9.72636 16.1045 7.89315 14.2713 7.89315 11.9999C7.89315 9.72836 9.72636 7.89515 11.9978 7.89515C14.2693 7.89515 16.1025 9.72836 16.1025 11.9999C16.1025 14.2713 14.2693 16.1045 11.9978 16.1045ZM16.2707 8.68567C15.7403 8.68567 15.312 8.25739 15.312 7.72704C15.312 7.19669 15.7403 6.76841 16.2707 6.76841C16.801 6.76841 17.2293 7.19669 17.2293 7.72704C17.2294 7.85298 17.2048 7.9777 17.1566 8.09408C17.1085 8.21046 17.0379 8.3162 16.9489 8.40525C16.8598 8.4943 16.7541 8.5649 16.6377 8.61302C16.5213 8.66114 16.3966 8.68583 16.2707 8.68567Z" fill="#C5C5C5"/>
</svg>
