<svg width="24" height="24" viewBox="0 0 24 24" fill="none" xmlns="http://www.w3.org/2000/svg">
<path fill-rule="evenodd" clip-rule="evenodd" d="M10.8101 9.78565C10.8832 9.78565 10.9547 9.80787 11.0151 9.84913C11.0755 9.89042 11.1224 9.94897 11.1489 10.0171L12.0737 12.397C12.092 12.4416 12.1014 12.4894 12.1011 12.5376C12.1007 12.5858 12.0908 12.6339 12.0718 12.6782C12.0527 12.7226 12.0245 12.7628 11.9898 12.7964C11.9551 12.8298 11.9145 12.8561 11.8696 12.8735C11.8246 12.891 11.7763 12.8992 11.728 12.898C11.6799 12.8967 11.6323 12.8865 11.5884 12.8667C11.5444 12.8468 11.5041 12.8181 11.4712 12.7827C11.4384 12.7474 11.4127 12.7059 11.396 12.6607L11.2817 12.3638H10.3394L10.2232 12.6607C10.187 12.7486 10.1181 12.8193 10.0308 12.8569C9.94332 12.8945 9.84412 12.8962 9.75538 12.8618C9.66658 12.8273 9.5944 12.7592 9.55518 12.6724C9.51598 12.5855 9.51254 12.4864 9.54542 12.397L10.4712 10.0171C10.4978 9.94893 10.5446 9.89044 10.605 9.84913C10.6654 9.80782 10.7369 9.78568 10.8101 9.78565ZM10.6216 11.6362H10.9985L10.8101 11.1519L10.6216 11.6362Z" fill="#C5C5C5"/>
<path d="M9.61964 9.78468C9.71598 9.78468 9.8083 9.82306 9.87647 9.89112C9.94457 9.95922 9.98281 10.0517 9.98292 10.148C9.98292 10.2444 9.94467 10.3376 9.87647 10.4058C9.8083 10.4738 9.71594 10.5122 9.61964 10.5122H9.18995V12.5288C9.18993 12.6251 9.15156 12.7175 9.0835 12.7857C9.01542 12.8537 8.92294 12.892 8.82667 12.8921C8.73023 12.8921 8.63705 12.8538 8.56886 12.7857C8.50081 12.7175 8.46243 12.6251 8.46241 12.5288V10.5122H8.03272C7.93641 10.5122 7.84405 10.4738 7.77589 10.4058C7.70769 10.3376 7.66944 10.2444 7.66944 10.148C7.66955 10.0517 7.70779 9.95922 7.77589 9.89112C7.84406 9.82306 7.93638 9.78468 8.03272 9.78468H9.61964Z" fill="#C5C5C5"/>
<path d="M12.5288 9.78468C12.6251 9.7847 12.7175 9.82305 12.7857 9.89112C12.8537 9.95922 12.892 10.0517 12.8921 10.148V12.1655H13.5874C13.6837 12.1657 13.7762 12.2039 13.8442 12.272C13.9123 12.3401 13.9507 12.4325 13.9507 12.5288C13.9507 12.6251 13.9123 12.7175 13.8442 12.7857C13.7762 12.8537 13.6837 12.892 13.5874 12.8921H12.5288C12.4324 12.8921 12.3402 12.8538 12.272 12.7857C12.2038 12.7175 12.1656 12.6252 12.1655 12.5288V10.148C12.1656 10.0517 12.2039 9.95922 12.272 9.89112C12.3402 9.82308 12.4325 9.78468 12.5288 9.78468Z" fill="#C5C5C5"/>
<path d="M15.9673 9.78077C16.0155 9.78035 16.0633 9.7899 16.1079 9.80811C16.1526 9.8264 16.1939 9.85307 16.228 9.88721C16.262 9.92127 16.2889 9.96182 16.3071 10.0064C16.3254 10.0509 16.3348 10.0989 16.3345 10.147C16.3341 10.1952 16.3242 10.2433 16.3052 10.2876C16.2861 10.332 16.2579 10.3722 16.2232 10.4058L15.396 11.2339L16.2505 12.3023C16.307 12.3777 16.3316 12.4724 16.3198 12.5659C16.308 12.6596 16.2607 12.7452 16.187 12.8042C16.1133 12.8633 16.0193 12.8912 15.9253 12.8823C15.8313 12.8734 15.7445 12.8282 15.6831 12.7564L14.8774 11.7515L14.7437 11.8862V12.5288C14.7436 12.6251 14.7052 12.7175 14.6372 12.7857C14.569 12.8538 14.4758 12.8921 14.3794 12.8921C14.283 12.892 14.1907 12.8538 14.1226 12.7857C14.0544 12.7175 14.0161 12.6252 14.0161 12.5288V10.148C14.0162 10.0517 14.0545 9.95922 14.1226 9.89112C14.1908 9.82298 14.284 9.78468 14.3804 9.78468C14.4767 9.78468 14.569 9.82306 14.6372 9.89112C14.7053 9.95922 14.7435 10.0517 14.7437 10.148V10.8579L15.7095 9.8921C15.7429 9.85746 15.7824 9.82912 15.8267 9.81007C15.871 9.79104 15.9191 9.78122 15.9673 9.78077Z" fill="#C5C5C5"/>
<path fill-rule="evenodd" clip-rule="evenodd" d="M11.9995 4.0005C13.1022 4.0005 14.1975 3.99119 15.3023 4.05323C16.583 4.11528 17.7182 4.40469 18.6567 5.34327C19.5933 6.27986 19.8847 7.41697 19.9468 8.69776C20.0088 9.80032 19.9995 10.895 19.9995 11.9995C19.9995 13.1042 20.0108 14.1995 19.9468 15.3023C19.8847 16.5831 19.5953 17.7182 18.6567 18.6567C17.7202 19.5933 16.5831 19.8847 15.3023 19.9468C14.1995 20.0088 13.1042 19.9995 11.9995 19.9995C10.897 19.9995 9.80232 20.0088 8.69776 19.9468C7.41697 19.8847 6.28186 19.5953 5.34327 18.6567C4.40669 17.7202 4.11528 16.583 4.05323 15.3023C3.99119 14.1995 4.0005 13.1022 4.0005 11.9995C4.00049 10.897 3.9912 9.80232 4.05323 8.69776C4.11528 7.41697 4.40468 6.28186 5.34327 5.34327C6.27986 4.40668 7.41697 4.11528 8.69776 4.05323C9.80032 3.9912 10.895 4.00049 11.9995 4.0005ZM12.0005 6.44678C8.84195 6.44678 6.18214 8.52801 6.18214 11.2066C6.18214 12.837 7.1788 14.256 8.66163 15.1069L8.30128 17.2446C8.2929 17.2946 8.29889 17.3465 8.31886 17.3931C8.33895 17.4398 8.37237 17.4799 8.41456 17.5083C8.45675 17.5367 8.5063 17.5522 8.55714 17.5532C8.60779 17.5542 8.65753 17.5407 8.70069 17.5142L11.2681 15.9302C11.5112 15.9546 11.7562 15.9665 12.0005 15.9663C15.1588 15.9661 17.8179 13.885 17.8179 11.2066C17.8179 8.52815 15.1588 6.447 12.0005 6.44678Z" fill="#C5C5C5"/>
</svg>
