<svg width="12" height="15" viewBox="0 0 12 15" fill="none" xmlns="http://www.w3.org/2000/svg">
<path d="M5.99512 0C9.28642 0 12 2.78838 12 6.23828C11.9999 7.97647 11.405 9.5902 10.4258 10.958C9.34541 12.4668 8.01347 13.7816 6.51465 14.8135C6.17157 15.052 5.86189 15.07 5.48535 14.8135C3.97779 13.7815 2.64546 12.467 1.57422 10.958C0.594289 9.5902 7.50873e-05 7.97647 0 6.23828C0 2.78847 2.71319 0.00014504 5.99512 0ZM6.00195 3.74902C4.75939 3.74902 3.75208 4.75649 3.75195 5.99902C3.75195 7.24166 4.75931 8.24902 6.00195 8.24902C7.24454 8.24896 8.25195 7.24162 8.25195 5.99902C8.25182 4.75654 7.24446 3.74909 6.00195 3.74902Z" fill="#C5C5C5"/>
</svg>
