<svg width="12" height="15" viewBox="0 0 12 15" fill="none" xmlns="http://www.w3.org/2000/svg">
<path d="M5.99512 0C9.28639 0 12 2.78842 12 6.23828C12 7.97673 11.4052 9.59102 10.4258 10.959C9.34535 12.4678 8.01356 13.7825 6.51465 14.8145C6.17165 15.0529 5.86177 15.0708 5.48535 14.8145C3.97781 13.7825 2.64545 12.4679 1.57422 10.959C0.594089 9.59102 0 7.97673 0 6.23828C3.98232e-05 2.78851 2.71321 0.000145029 5.99512 0ZM6 3.75C4.75757 3.75023 3.75003 4.75752 3.75 6C3.75 7.2425 4.75755 8.24977 6 8.25C7.24264 8.25 8.25 7.24264 8.25 6C8.24997 4.75738 7.24262 3.75 6 3.75Z" fill="#989898"/>
</svg>
