<svg width="10" height="12" viewBox="0 0 10 12" fill="none" xmlns="http://www.w3.org/2000/svg">
<path d="M4.66309 0C7.22298 1.02341e-05 9.33301 2.16929 9.33301 4.85254C9.3329 6.20448 8.87008 7.4596 8.1084 8.52344C7.26804 9.697 6.23226 10.7199 5.06641 11.5225C4.79979 11.7077 4.55919 11.7216 4.2666 11.5225C3.09405 10.7198 2.05779 9.69707 1.22461 8.52344C0.462377 7.4596 0.000110188 6.20448 0 4.85254C0 2.16928 2.11038 0 4.66309 0ZM4.66699 2.91699C3.70049 2.91699 2.91699 3.70049 2.91699 4.66699C2.91715 5.63336 3.70059 6.41699 4.66699 6.41699C5.6334 6.41699 6.41684 5.63336 6.41699 4.66699C6.41699 3.70049 5.63349 2.91699 4.66699 2.91699Z" fill="#787878"/>
</svg>
