<svg width="14" height="14" viewBox="0 0 14 14" fill="none" xmlns="http://www.w3.org/2000/svg">
<rect width="14" height="14" fill="white"/>
<path d="M6.99609 1.1665C9.55598 1.16651 11.666 3.33579 11.666 6.01904C11.6659 7.37099 11.2031 8.6261 10.4414 9.68994C9.60104 10.8635 8.56527 11.8864 7.39941 12.689C7.1328 12.8742 6.89219 12.8881 6.59961 12.689C5.42706 11.8863 4.3908 10.8636 3.55762 9.68994C2.79539 8.6261 2.33312 7.37099 2.33301 6.01904C2.33301 3.33579 4.44339 1.1665 6.99609 1.1665ZM7 4.0835C6.0335 4.0835 5.25 4.867 5.25 5.8335C5.25015 6.79986 6.0336 7.5835 7 7.5835C7.9664 7.5835 8.74985 6.79986 8.75 5.8335C8.75 4.867 7.9665 4.0835 7 4.0835Z" fill="#787878"/>
</svg>
