<svg width="14" height="14" viewBox="0 0 14 14" fill="none" xmlns="http://www.w3.org/2000/svg">
<rect width="14" height="14" fill="white"/>
<path d="M6.99609 1.16699C9.55598 1.167 11.666 3.33628 11.666 6.01953C11.6659 7.37147 11.2031 8.62659 10.4414 9.69043C9.60104 10.864 8.56527 11.8868 7.39941 12.6895C7.1328 12.8747 6.89219 12.8886 6.59961 12.6895C5.42706 11.8868 4.3908 10.8641 3.55762 9.69043C2.79539 8.62659 2.33312 7.37147 2.33301 6.01953C2.33301 3.33628 4.44339 1.16699 6.99609 1.16699ZM7 4.08398C6.0335 4.08398 5.25 4.86749 5.25 5.83398C5.25015 6.80035 6.0336 7.58398 7 7.58398C7.9664 7.58398 8.74985 6.80035 8.75 5.83398C8.75 4.86749 7.9665 4.08398 7 4.08398Z" fill="#787878"/>
</svg>
