<svg width="32" height="32" viewBox="0 0 32 32" fill="none" xmlns="http://www.w3.org/2000/svg">
<circle cx="16.0004" cy="16" r="12" transform="rotate(135 16.0004 16)" fill="#3A3A3A" stroke="white" stroke-width="4"/>
<path d="M17.5656 12.1613C17.4571 12.0528 17.4571 11.8769 17.5656 11.7683L18.8429 10.4911C19.1142 10.2198 19.5541 10.2198 19.8254 10.4911L21.2991 11.9648C21.5704 12.2362 21.5704 12.676 21.2991 12.9473L20.0219 14.2246C19.9133 14.3331 19.7374 14.3331 19.6289 14.2246L17.5656 12.1613Z" fill="white"/>
<path d="M11.5602 20.5319C11.3874 20.5476 11.2426 20.4028 11.2583 20.23L11.451 18.1107C11.4657 17.9489 11.5367 17.7973 11.6516 17.6824L16.6809 12.6531C16.7894 12.5446 16.9654 12.5446 17.0739 12.6531L19.1371 14.7163C19.2456 14.8248 19.2456 15.0008 19.1371 15.1093L14.1078 20.1386C13.9929 20.2535 13.8413 20.3245 13.6795 20.3392L11.5602 20.5319Z" fill="white"/>
</svg>
