<svg width="14" height="17" viewBox="0 0 14 17" fill="none" xmlns="http://www.w3.org/2000/svg">
<path d="M6.66113 0C10.318 0 13.3328 3.09766 13.333 6.93066C13.333 8.8622 12.6722 10.6559 11.584 12.1758C10.3835 13.8523 8.90379 15.3133 7.23828 16.46C6.85712 16.7249 6.51303 16.7449 6.09473 16.46C4.41966 15.3133 2.93929 13.8524 1.74902 12.1758C0.660127 10.6559 0 8.86214 0 6.93066C0.000249082 3.0978 3.01474 0.000222541 6.66113 0ZM6.66895 4.16504C5.28831 4.16504 4.16906 5.28443 4.16895 6.66504C4.16895 8.04575 5.28823 9.16504 6.66895 9.16504C8.04961 9.16498 9.16895 8.04571 9.16895 6.66504C9.16883 5.28446 8.04953 4.1651 6.66895 4.16504Z" fill="#FF5414"/>
</svg>
