<svg width="14" height="15" viewBox="0 0 14 15" fill="none" xmlns="http://www.w3.org/2000/svg">
<path fill-rule="evenodd" clip-rule="evenodd" d="M0.199019 14.4978L3.47218 13.9654C3.52918 13.9561 3.5817 13.9293 3.62221 13.8885L11.2318 6.27961C11.2853 6.22606 11.2853 6.13921 11.2318 6.08531L8.41489 3.26868C8.36133 3.21513 8.27448 3.21513 8.22058 3.26868L0.611683 10.8779C0.570829 10.9187 0.54405 10.9712 0.534781 11.0279L0.00229913 14.3007C-0.0165832 14.4164 0.0836648 14.5167 0.199362 14.4978H0.199019Z" fill="#4B4B4B"/>
<path d="M11.5237 5.79353L8.707 2.97705C8.65335 2.9234 8.65335 2.8365 8.707 2.78286L10.5044 0.985633C10.7724 0.717651 11.2074 0.717651 11.4754 0.985633L13.5154 3.02535C13.7834 3.29334 13.7834 3.72832 13.5154 3.9963L11.718 5.79353C11.6643 5.84718 11.5774 5.84718 11.5237 5.79353Z" fill="#4B4B4B"/>
</svg>
