<svg width="12" height="10" viewBox="0 0 12 10" fill="none" xmlns="http://www.w3.org/2000/svg">
<g clip-path="url(#clip0_4721_7401)">
<path fill-rule="evenodd" clip-rule="evenodd" d="M1.14213 9.99732L3.47964 9.61709C3.52034 9.61048 3.55785 9.59135 3.58678 9.56218L9.0211 4.12838C9.05934 4.09013 9.05934 4.02811 9.0211 3.98962L7.00943 1.97815C6.97118 1.9399 6.90915 1.9399 6.87066 1.97815L1.43683 7.41219C1.40766 7.44137 1.38853 7.47887 1.38191 7.51933L1.00165 9.85661C0.988162 9.93922 1.05951 10.0108 1.14213 9.99732Z" fill="#C5C5C5"/>
<path d="M9.23144 3.78125L7.21988 1.76988C7.18156 1.73157 7.18156 1.66951 7.21988 1.6312L8.50347 0.347725C8.69487 0.156348 9.00554 0.156348 9.19694 0.347725L10.6537 1.80438C10.8451 1.99575 10.8451 2.30639 10.6537 2.49777L9.37013 3.78125C9.33181 3.81956 9.26975 3.81956 9.23144 3.78125Z" fill="#C5C5C5"/>
</g>
<defs>
<clipPath id="clip0_4721_7401">
<rect width="12" height="9.99782" fill="white" transform="translate(0 0.000976562)"/>
</clipPath>
</defs>
</svg>
