<svg width="14" height="14" viewBox="0 0 14 14" fill="none" xmlns="http://www.w3.org/2000/svg">
<rect width="14" height="14" fill="white"/>
<path d="M7 1.5C9.76142 1.5 12 3.73858 12 6.5C12 9.26141 9.76141 11.5 7 11.5C4.23859 11.5 2.00002 9.26141 2 6.5C2 3.73858 4.23858 1.5 7 1.5ZM7 3.5C6.72387 3.5 6.50002 3.72387 6.5 4V6.81934C6.5 6.99624 6.59375 7.16007 6.74609 7.25L8.74609 8.43066C8.98387 8.57085 9.29034 8.49164 9.43066 8.25391C9.57083 8.01614 9.49163 7.70966 9.25391 7.56934L7.5 6.5332V4C7.49998 3.72387 7.27613 3.5 7 3.5Z" fill="#787878"/>
</svg>
