<svg width="288" height="392" viewBox="0 0 288 392" fill="none" xmlns="http://www.w3.org/2000/svg">
<path d="M296.896 302.447L248.544 313.412C242.369 286.053 233.054 265.012 222.554 248.778C222.514 259.119 221.676 269.51 220.04 279.951C214.323 318.318 181.302 364.151 146.322 382.222C120.813 395.441 88.2637 395.038 61.2956 380.982C37.4691 368.591 18.7162 346.888 8.55303 319.776C-3.58051 287.865 -1.19475 250.459 15.2039 217.222C31.4897 184.063 59.6433 159.21 92.4234 149.306C108.926 144.277 127.039 142.798 145.09 144.856C121.589 102.464 86.0894 66.3292 49.0108 41.9263L76.2789 0.548201C131.974 37.2654 184.583 97.0661 208.745 166.783C239.971 186.062 279.424 224.802 296.896 302.447ZM87.5425 206.062C76.0237 213.984 66.3409 225.302 59.5458 239.124C49.279 259.993 47.561 283.133 54.7579 302.303C60.5704 317.769 71.3237 330.501 84.0806 337.197C96.7599 343.781 112.163 344.166 123.371 338.453C144.052 327.889 167.531 295.272 170.894 272.831C174.609 248.484 172.932 224.519 167.238 201.486C147.005 193.111 125.157 191.336 106.572 196.966C99.7955 198.965 93.3795 202.213 87.3942 206.33L87.5425 206.062Z" fill="#FF5414" fill-opacity="0.08"/>
</svg>
