<svg width="496" height="439" viewBox="0 0 496 439" fill="none" xmlns="http://www.w3.org/2000/svg">
<path d="M65.9163 230.127C77.1233 212.994 92.9659 202.766 111.011 201.546C137.468 199.844 162.313 219.44 168.766 247.244C173.224 266.528 169.156 287.275 156.996 307.48C147.007 323.826 133.44 337.303 117.512 347.124C124.053 357.034 132.463 365.703 142.323 372.153C175.148 393.272 223.192 388.972 251.678 362.374C255.083 359.321 258.075 355.822 260.902 352.039C257.982 349.777 255.062 347.515 252.303 345.006C224.884 320.735 209.03 287.662 208.411 254.169C208.028 224.351 222.361 200.287 245.13 192.653C270.791 184.096 299.104 198.391 315.583 228.355C332.02 258.114 336.086 293.333 329.267 326.36C336.715 327.888 344.358 328.311 351.745 327.511C395.783 322.878 435.172 281.764 441.534 233.831C447.669 187.861 425.651 136.499 385.65 102.942C348.655 72.055 296.704 54.616 239.505 53.8084L240.184 0.573451C309.762 1.55881 373.599 23.4284 419.772 62.0788C474.421 107.681 503.002 176.184 494.375 240.764C484.836 313.195 425.88 373.189 357.476 380.364C341.56 382.096 325.041 380.443 309.111 376.006C303.065 385.251 296.112 393.727 288.008 401.273C241.691 444.368 166.707 451.109 113.587 416.891C93.5388 403.953 77.531 385.914 66.483 365.135C44.2032 367.985 21.0141 364.961 0.092734 354.971L22.917 306.895C31.2847 310.784 40.5345 312.787 49.8085 312.869C47.2189 292.343 49.0388 271.534 55.6473 251.745C58.3134 243.634 61.8044 236.413 65.9163 230.127ZM113.438 254.876C112.632 256.109 108.952 260.39 106.082 268.544C103.615 276.082 102.172 283.938 101.957 292.07C105.561 288.443 108.796 284.575 111.371 280.1C116.204 272.173 118.22 264.516 116.989 259.135C116.52 256.892 114.5 254.867 113.68 254.507C113.68 254.507 113.599 254.63 113.519 254.753L113.438 254.876ZM279.332 296.688C279.406 281.777 276.171 266.813 269.114 253.925C267.08 250.307 264.644 247.305 262.587 245.607C262.032 247.532 261.647 250.273 261.675 253.459C261.847 268.531 268.231 283.795 279.252 296.812L279.332 296.688Z" fill="#FF5414" fill-opacity="0.05"/>
</svg>
