<svg width="45" height="45" viewBox="0 0 45 45" fill="none" xmlns="http://www.w3.org/2000/svg">
<rect width="45" height="45" rx="6" fill="#EFEFEF"/>
<path d="M29.1525 33.9544C27.8634 33.9544 26.7783 33.4722 26.092 32.5633C25.0904 31.2278 25.2666 29.2432 26.5093 27.9448C27.3718 27.0452 28.6053 26.5444 30.0892 26.4887C31.2948 26.4517 32.4726 26.7021 33.5391 27.2029C33.8359 26.5166 34.0028 25.7746 34.0028 25.0327C33.9843 22.5751 32.1017 20.1916 29.7182 19.6073C29.44 19.5331 29.1525 19.4961 28.8557 19.4775C28.8372 19.7094 28.8186 19.9412 28.7815 20.1731C28.4476 22.4545 27.2513 24.4299 25.5077 25.617C23.9497 26.665 22.1876 26.7391 21.0005 25.8025C19.665 24.7452 19.4425 22.7605 20.4533 20.8593C21.4549 18.9674 23.1707 17.5392 25.1461 16.7602C24.9698 16.315 24.7287 15.8977 24.4319 15.536C22.6699 13.3751 19.1457 12.7167 16.4005 14.0336C13.7667 15.2949 11.8191 18.2255 11.4296 21.49C11.0772 24.5041 11.949 27.8428 13.878 30.8847L11.0494 32.6839C8.70301 28.9835 7.65503 24.8658 8.10019 21.1005C8.61954 16.6489 11.2441 12.7816 14.9445 11.0102C19.09 9.01628 24.2836 10.055 27.0194 13.4122C27.6593 14.1912 28.1416 15.1187 28.4569 16.111C29.1525 16.111 29.8388 16.1852 30.5158 16.3521C34.3831 17.3074 37.323 21.0263 37.3508 25.0049C37.3601 26.5073 36.9613 27.9726 36.2472 29.271C37.1653 30.3468 37.8052 31.673 38 33.1198L34.6799 33.5742C34.5964 32.9992 34.3831 32.4427 34.0678 31.9512C33.0754 32.7952 31.9162 33.4165 30.6456 33.7504C30.1263 33.8895 29.6255 33.9544 29.1525 33.9544ZM28.8186 30.5972C28.9113 30.5972 29.2638 30.6436 29.7924 30.5137C30.2746 30.3839 30.7384 30.1891 31.1742 29.9202C30.8589 29.8553 30.5436 29.8182 30.219 29.8367C29.6347 29.8553 29.1618 30.0129 28.9206 30.2633C28.8186 30.3653 28.7815 30.5415 28.7908 30.5972C28.7908 30.5972 28.8001 30.5972 28.8093 30.5972H28.8186ZM25.3037 20.4142C24.5154 20.9243 23.8384 21.6106 23.4025 22.4267C23.282 22.6585 23.2078 22.8904 23.1892 23.0573C23.3098 23.0202 23.4674 22.946 23.6344 22.8347C24.4227 22.3061 25.0069 21.4436 25.313 20.4142H25.3037Z" fill="black" fill-opacity="0.2"/>
</svg>
