<svg width="1590" height="325" viewBox="0 0 1590 325" fill="none" xmlns="http://www.w3.org/2000/svg">
<path d="M944.196 297.938L910.203 284.381C917.892 265.159 921.028 248.466 921.433 234.201C917.082 240.473 912.226 246.442 906.864 252.108C887.338 273.05 848.085 287.113 819.251 283.471C798.208 280.84 778.581 266.98 768.059 247.15C758.752 229.648 756.425 208.605 761.585 187.865C767.554 163.382 784.651 141.63 808.527 128.276C832.302 114.921 859.82 111.582 883.899 119.271C896.039 123.116 907.673 129.793 917.79 138.595C921.23 102.983 914.755 66.1571 902.413 35.806L936.305 22.0469C954.819 67.6746 961.799 126.05 947.332 178.557C958.258 203.344 966.048 243.407 944.196 297.938ZM857.19 151.747C846.871 151.747 836.248 154.58 826.333 160.144C811.36 168.541 800.636 181.896 796.994 196.565C794.06 208.402 795.274 220.644 800.231 230.053C805.189 239.36 814.395 246.038 823.602 247.252C840.598 249.477 868.521 239.462 879.953 227.22C892.397 213.967 901.401 198.69 907.572 182.3C898.771 168.744 886.226 158.525 872.568 154.175C867.61 152.556 862.349 151.848 856.987 151.848L857.19 151.747Z" fill="#FFEBE3"/>
<path d="M230.748 261.315C216.685 261.315 204.849 256.054 197.362 246.14C186.436 231.571 188.358 209.921 201.915 195.757C211.323 185.944 224.779 180.48 240.966 179.873C254.118 179.469 266.967 182.2 278.601 187.663C281.839 180.177 283.66 172.083 283.66 163.99C283.457 137.18 262.92 111.179 236.919 104.805C233.884 103.996 230.748 103.591 227.511 103.389C227.308 105.918 227.106 108.447 226.701 110.976C223.059 135.864 210.008 157.414 190.988 170.363C173.992 181.796 154.77 182.605 141.82 172.387C127.252 160.853 124.823 139.203 135.851 118.463C146.777 97.8243 165.494 82.2441 187.043 73.7458C185.121 68.8897 182.49 64.337 179.253 60.3914C160.03 36.8187 121.586 29.6356 91.6398 44.0018C62.9076 57.761 41.662 89.7307 37.4129 125.343C33.5684 158.223 43.0784 194.644 64.1217 227.828L33.2649 247.455C7.66901 207.088 -3.76315 162.169 1.09299 121.093C6.75849 72.5318 35.3895 30.3438 75.7562 11.0203C120.979 -10.7312 177.634 0.599813 207.479 37.2234C214.46 45.7217 219.721 55.8387 223.16 66.6639C230.748 66.6639 238.235 67.4733 245.62 69.2943C287.808 79.7149 319.878 120.284 320.182 163.686C320.283 180.076 315.933 196.061 308.143 210.224C318.159 221.96 325.139 236.427 327.264 252.21L291.045 257.167C290.135 250.895 287.808 244.825 284.368 239.463C273.543 248.669 260.897 255.447 247.036 259.09C241.371 260.607 235.908 261.315 230.748 261.315ZM227.106 224.692C228.118 224.692 231.962 225.198 237.729 223.781C242.99 222.365 248.048 220.24 252.803 217.306C249.363 216.598 245.923 216.193 242.383 216.396C236.009 216.598 230.849 218.318 228.219 221.05C227.106 222.162 226.701 224.085 226.802 224.692C226.802 224.692 226.904 224.692 227.005 224.692H227.106ZM188.763 113.607C180.163 119.171 172.778 126.658 168.023 135.561C166.708 138.09 165.898 140.619 165.696 142.44C167.011 142.036 168.731 141.226 170.552 140.012C179.152 134.246 185.525 124.837 188.864 113.607H188.763Z" fill="#FFEBE3"/>
<path d="M439.258 272.74C422.565 272.74 407.39 270.514 394.035 265.961C380.681 261.51 369.148 255.338 359.739 247.548C350.33 239.859 342.945 230.653 337.886 220.334C332.828 210.014 330.197 198.784 330.197 186.947C330.197 175.11 332.727 163.881 337.886 153.561C342.945 143.242 350.33 134.035 359.739 126.346C369.148 118.657 380.681 112.486 394.035 107.933C407.39 103.482 422.565 101.155 439.258 101.155C455.951 101.155 471.127 103.381 484.481 107.933C497.835 112.385 509.369 118.556 518.777 126.346C528.186 134.035 535.572 143.242 540.63 153.561C545.689 163.881 548.319 175.11 548.319 186.947C548.319 198.784 545.79 210.014 540.63 220.334C535.572 230.653 528.186 239.859 518.777 247.548C509.369 255.237 497.835 261.409 484.481 265.961C471.127 270.413 455.951 272.74 439.258 272.74ZM439.258 137.576C429.445 137.576 420.441 138.892 412.752 141.623C405.063 144.254 398.386 147.896 393.024 152.448C387.662 157.001 383.514 162.262 380.681 168.231C377.848 174.2 376.432 180.574 376.432 187.15C376.432 193.726 377.848 200.099 380.681 205.967C383.514 211.835 387.662 217.197 393.024 221.649C398.386 226.201 405.063 229.742 412.752 232.474C420.441 235.104 429.445 236.521 439.258 236.521C449.072 236.521 458.076 235.206 465.765 232.474C473.555 229.843 480.131 226.201 485.493 221.649C490.855 217.096 495.003 211.835 497.835 205.967C500.668 200.099 502.084 193.726 502.084 187.15C502.084 180.574 500.668 174.2 497.835 168.231C495.003 162.262 490.855 157.001 485.493 152.448C480.131 147.896 473.453 144.254 465.765 141.623C458.076 138.993 449.072 137.576 439.258 137.576Z" fill="#FFEBE3"/>
<path d="M1075.31 272.74C1058.62 272.74 1043.45 270.514 1030.09 265.961C1016.74 261.51 1005.2 255.338 995.795 247.548C986.387 239.859 979.001 230.653 973.943 220.334C968.884 210.014 966.254 198.784 966.254 186.947C966.254 175.11 968.783 163.881 973.943 153.561C979.001 143.242 986.387 134.035 995.795 126.346C1005.2 118.657 1016.74 112.486 1030.09 107.933C1043.45 103.482 1058.62 101.155 1075.31 101.155C1092.01 101.155 1107.18 103.381 1120.54 107.933C1133.89 112.385 1145.43 118.556 1154.83 126.346C1164.24 134.035 1171.63 143.242 1176.69 153.561C1181.75 163.881 1184.38 175.11 1184.38 186.947C1184.38 198.784 1181.85 210.014 1176.69 220.334C1171.63 230.653 1164.24 239.859 1154.83 247.548C1145.43 255.237 1133.89 261.409 1120.54 265.961C1107.18 270.413 1092.01 272.74 1075.31 272.74ZM1075.31 137.576C1065.5 137.576 1056.5 138.892 1048.81 141.623C1041.12 144.254 1034.44 147.896 1029.08 152.448C1023.72 157.001 1019.57 162.262 1016.74 168.231C1013.9 174.2 1012.49 180.574 1012.49 187.15C1012.49 193.726 1013.9 200.099 1016.74 205.967C1019.57 211.835 1023.72 217.197 1029.08 221.649C1034.44 226.201 1041.12 229.742 1048.81 232.474C1056.5 235.104 1065.5 236.521 1075.31 236.521C1085.13 236.521 1094.13 235.206 1101.82 232.474C1109.61 229.843 1116.19 226.201 1121.55 221.649C1126.91 217.096 1131.06 211.835 1133.89 205.967C1136.72 200.099 1138.14 193.726 1138.14 187.15C1138.14 180.574 1136.72 174.2 1133.89 168.231C1131.06 162.262 1126.91 157.001 1121.55 152.448C1116.19 147.896 1109.51 144.254 1101.82 141.623C1094.13 138.993 1085.13 137.576 1075.31 137.576Z" fill="#FFEBE3"/>
<path d="M630.872 272.743C618.024 272.743 606.591 271.327 596.879 268.494C587.167 265.661 578.871 261.817 572.396 256.859C565.921 251.902 560.863 246.034 557.625 239.357C554.287 232.68 552.668 225.396 552.668 217.504C552.668 209.613 554.388 202.228 557.828 195.753C561.267 189.278 566.528 183.511 573.408 178.857C580.287 174.203 588.988 170.46 599.307 167.931C609.626 165.402 621.767 164.086 635.425 164.086C645.542 164.086 656.367 164.795 667.597 166.312C678.826 167.83 690.562 170.157 702.5 173.192C701.994 168.032 700.477 163.075 697.745 158.724C695.014 154.273 691.27 150.428 686.414 147.191C681.659 143.954 675.791 141.424 669.013 139.704C662.235 137.985 654.546 137.074 645.946 137.074C641.293 137.074 636.133 137.378 630.569 137.883C624.903 138.49 619.136 139.3 613.167 140.413C607.198 141.525 601.229 142.942 595.463 144.662C590.809 145.977 586.256 147.596 582.007 149.417L579.073 150.631L566.427 116.536L569.361 115.525C574.723 113.704 580.49 111.984 586.56 110.365C593.642 108.544 601.027 106.925 608.514 105.509C616 104.194 623.487 103.081 630.973 102.373C638.46 101.664 645.744 101.26 652.725 101.26C683.581 101.26 706.749 109.252 721.722 124.934C736.695 140.615 744.283 165.098 744.283 197.574V269.708H702.804V254.128C698.555 256.657 693.8 259.085 688.741 261.311C683.683 263.537 678.017 265.56 672.149 267.179C666.18 268.899 659.705 270.214 652.826 271.226C645.946 272.237 638.662 272.743 630.973 272.743H630.872ZM636.841 197.169C629.152 197.169 622.576 197.675 617.518 198.687C612.358 199.698 608.21 201.115 605.074 202.835C601.938 204.554 599.611 206.578 598.295 208.905C596.98 211.232 596.373 213.66 596.373 216.189C596.373 218.921 597.081 221.551 598.498 223.979C599.914 226.407 602.14 228.633 605.276 230.555C608.311 232.477 612.358 233.995 617.113 235.209C621.868 236.423 627.736 236.929 634.615 236.929C641.9 236.929 648.981 236.221 655.76 235.007C662.538 233.692 669.013 231.972 674.881 229.847C680.749 227.722 686.111 225.193 690.866 222.462C695.621 219.629 699.566 216.796 702.804 213.761V206.477C696.43 204.757 690.157 203.239 683.986 202.025C677.815 200.811 671.846 199.8 666.18 199.192C660.515 198.484 655.153 197.978 650.195 197.675C645.238 197.371 640.787 197.27 637.043 197.27L636.841 197.169Z" fill="#FFEBE3"/>
<path d="M1342.38 269.809V195.145C1342.38 186.141 1341.07 177.946 1338.54 170.763C1336.01 163.681 1332.27 157.51 1327.41 152.654C1322.66 147.798 1316.69 143.953 1309.91 141.424C1303.03 138.895 1295.34 137.579 1286.84 137.579C1282.39 137.579 1277.74 138.085 1272.98 138.996C1268.23 139.906 1263.57 141.323 1259.12 143.043C1254.57 144.763 1250.22 146.887 1245.97 149.518C1241.82 152.047 1237.88 154.981 1234.44 158.319V269.809H1192.96V104.294H1234.44V118.357C1245.46 112.085 1256.09 107.633 1266.1 105.205C1276.12 102.676 1286.03 101.462 1295.64 101.462C1308.19 101.462 1320.03 103.283 1330.75 107.026C1341.47 110.668 1350.88 116.233 1358.67 123.517C1366.46 130.801 1372.74 139.906 1377.09 150.833C1381.54 161.658 1383.76 174.405 1383.76 188.67V270.011H1342.38V269.809Z" fill="#FFEBE3"/>
<path d="M1480.39 324.546C1450.95 324.546 1407.24 308.258 1387.82 281.953L1417.26 260.202C1427.58 274.163 1458.94 287.922 1480.49 287.922C1514.08 287.922 1536.74 270.218 1547.87 235.415C1551.21 224.893 1552.83 213.663 1553.23 202.231C1539.78 216.901 1523.69 229.244 1505.78 238.045C1474.02 253.727 1441.95 253.727 1419.89 237.843C1406.74 228.333 1398.14 213.663 1395.61 196.363C1392.88 177.343 1398.14 157.109 1409.67 142.44C1428.39 118.462 1461.78 106.12 1496.78 110.065C1527.23 113.505 1565.78 129.389 1586.01 142.136C1589.76 174.511 1594 211.235 1582.67 246.544C1566.79 296.016 1529.56 324.445 1480.39 324.445V324.546ZM1483.83 146.082C1465.01 146.082 1447.71 153.164 1438.3 165.102C1432.84 171.981 1430.31 181.997 1431.63 191.305C1432.23 195.554 1434.26 203.445 1441.04 208.2C1453.78 217.407 1474.42 212.753 1489.39 205.367C1509.22 195.554 1526.12 180.48 1538.16 162.168C1524.4 154.782 1508.72 148.409 1492.43 146.588C1489.5 146.284 1486.66 146.082 1483.83 146.082Z" fill="#FFEBE3"/>
</svg>
