<svg width="1994" height="407" viewBox="0 0 1994 407" fill="none" xmlns="http://www.w3.org/2000/svg">
<path d="M1184.08 373.631L1141.45 356.63C1151.09 332.524 1155.02 311.59 1155.53 293.701C1150.07 301.567 1143.98 309.053 1137.26 316.158C1112.77 342.42 1063.55 360.056 1027.39 355.488C1001 352.19 976.386 334.808 963.191 309.941C951.518 287.992 948.6 261.602 955.071 235.593C962.556 204.89 983.998 177.612 1013.94 160.865C1043.75 144.117 1078.26 139.93 1108.46 149.573C1123.68 154.394 1138.28 162.768 1150.96 173.806C1155.28 129.146 1147.16 82.9643 1131.68 44.9022L1174.18 27.6475C1197.4 84.8674 1206.15 158.073 1188.01 223.921C1201.71 255.005 1211.48 305.246 1184.08 373.631ZM1074.97 190.299C1062.02 190.299 1048.7 193.852 1036.27 200.83C1017.49 211.36 1004.04 228.107 999.476 246.504C995.797 261.348 997.32 276.7 1003.54 288.499C1009.75 300.172 1021.3 308.545 1032.84 310.068C1054.16 312.859 1089.18 300.298 1103.51 284.947C1119.12 268.326 1130.41 249.168 1138.15 228.615C1127.11 211.614 1111.38 198.8 1094.25 193.344C1088.03 191.314 1081.44 190.426 1074.71 190.426L1074.97 190.299Z" fill="#FF5414"/>
<path d="M289.372 327.705C271.736 327.705 256.892 321.108 247.504 308.674C233.801 290.404 236.212 263.253 253.213 245.491C265.012 233.184 281.886 226.333 302.186 225.572C318.679 225.064 334.792 228.49 349.383 235.341C353.442 225.952 355.726 215.803 355.726 205.653C355.472 172.031 329.717 139.425 297.111 131.432C293.305 130.417 289.372 129.909 285.312 129.656C285.058 132.827 284.804 135.999 284.297 139.171C279.729 170.382 263.363 197.406 239.511 213.646C218.196 227.982 194.09 228.997 177.851 216.183C159.581 201.72 156.536 174.569 170.365 148.56C184.067 122.678 207.539 103.139 234.563 92.4817C232.152 86.3918 228.853 80.6824 224.794 75.7344C200.688 46.1729 152.476 37.1649 114.922 55.1809C78.8899 72.4357 52.2466 112.528 46.918 157.187C42.0968 198.421 54.0228 244.095 80.4124 285.71L41.7162 310.323C9.6174 259.701 -4.71922 203.369 1.37067 151.858C8.47554 90.9592 44.3805 38.053 95.0027 13.8202C151.715 -13.4576 222.764 0.752201 260.191 46.6804C268.945 57.3377 275.543 70.0251 279.856 83.6005C289.372 83.6005 298.76 84.6155 308.022 86.8992C360.928 99.9672 401.147 150.843 401.527 205.272C401.654 225.826 396.199 245.872 386.429 263.634C398.99 278.351 407.744 296.494 410.408 316.286L364.988 322.503C363.846 314.637 360.928 307.025 356.614 300.3C343.039 311.846 327.18 320.346 309.798 324.914C302.693 326.817 295.842 327.705 289.372 327.705ZM284.804 281.777C286.073 281.777 290.894 282.411 298.126 280.635C304.723 278.859 311.067 276.194 317.03 272.515C312.716 271.627 308.403 271.119 303.962 271.373C295.969 271.627 289.499 273.784 286.2 277.209C284.804 278.605 284.297 281.016 284.424 281.777C284.424 281.777 284.551 281.777 284.677 281.777H284.804ZM236.72 142.47C225.935 149.448 216.674 158.836 210.711 170.001C209.061 173.173 208.046 176.345 207.793 178.629C209.442 178.121 211.599 177.106 213.882 175.584C224.667 168.352 232.66 156.553 236.846 142.47H236.72Z" fill="#FF5414"/>
<path d="M550.856 342.033C529.922 342.033 510.891 339.242 494.144 333.533C477.397 327.95 462.933 320.211 451.134 310.442C439.335 300.799 430.073 289.254 423.73 276.313C417.386 263.372 414.087 249.289 414.087 234.445C414.087 219.6 417.259 205.517 423.73 192.576C430.073 179.635 439.335 168.09 451.134 158.447C462.933 148.805 477.397 141.066 494.144 135.356C510.891 129.774 529.922 126.856 550.856 126.856C571.79 126.856 590.821 129.647 607.568 135.356C624.315 140.939 638.779 148.678 650.578 158.447C662.377 168.09 671.639 179.635 677.982 192.576C684.326 205.517 687.625 219.6 687.625 234.445C687.625 249.289 684.453 263.372 677.982 276.313C671.639 289.254 662.377 300.799 650.578 310.442C638.779 320.084 624.315 327.823 607.568 333.533C590.821 339.115 571.79 342.033 550.856 342.033ZM550.856 172.53C538.549 172.53 527.258 174.18 517.615 177.605C507.973 180.904 499.599 185.471 492.875 191.181C486.151 196.89 480.949 203.487 477.397 210.973C473.844 218.459 472.068 226.452 472.068 234.698C472.068 242.945 473.844 250.938 477.397 258.297C480.949 265.655 486.151 272.38 492.875 277.962C499.599 283.671 507.973 288.112 517.615 291.538C527.258 294.836 538.549 296.613 550.856 296.613C563.163 296.613 574.454 294.963 584.097 291.538C593.866 288.239 602.113 283.671 608.837 277.962C615.561 272.253 620.763 265.655 624.315 258.297C627.868 250.938 629.644 242.945 629.644 234.698C629.644 226.452 627.868 218.459 624.315 210.973C620.763 203.487 615.561 196.89 608.837 191.181C602.113 185.471 593.739 180.904 584.097 177.605C574.454 174.307 563.163 172.53 550.856 172.53Z" fill="#121212"/>
<path d="M1348.51 342.033C1327.58 342.033 1308.54 339.242 1291.8 333.533C1275.05 327.95 1260.59 320.211 1248.79 310.442C1236.99 300.799 1227.73 289.254 1221.38 276.313C1215.04 263.372 1211.74 249.289 1211.74 234.445C1211.74 219.6 1214.91 205.517 1221.38 192.576C1227.73 179.635 1236.99 168.09 1248.79 158.447C1260.59 148.805 1275.05 141.066 1291.8 135.356C1308.54 129.774 1327.58 126.856 1348.51 126.856C1369.44 126.856 1388.47 129.647 1405.22 135.356C1421.97 140.939 1436.43 148.678 1448.23 158.447C1460.03 168.09 1469.29 179.635 1475.64 192.576C1481.98 205.517 1485.28 219.6 1485.28 234.445C1485.28 249.289 1482.11 263.372 1475.64 276.313C1469.29 289.254 1460.03 300.799 1448.23 310.442C1436.43 320.084 1421.97 327.823 1405.22 333.533C1388.47 339.115 1369.44 342.033 1348.51 342.033ZM1348.51 172.53C1336.2 172.53 1324.91 174.18 1315.27 177.605C1305.63 180.904 1297.25 185.471 1290.53 191.181C1283.8 196.89 1278.6 203.487 1275.05 210.973C1271.5 218.459 1269.72 226.452 1269.72 234.698C1269.72 242.945 1271.5 250.938 1275.05 258.297C1278.6 265.655 1283.8 272.38 1290.53 277.962C1297.25 283.671 1305.63 288.112 1315.27 291.538C1324.91 294.836 1336.2 296.613 1348.51 296.613C1360.82 296.613 1372.11 294.963 1381.75 291.538C1391.52 288.239 1399.77 283.671 1406.49 277.962C1413.21 272.253 1418.42 265.655 1421.97 258.297C1425.52 250.938 1427.3 242.945 1427.3 234.698C1427.3 226.452 1425.52 218.459 1421.97 210.973C1418.42 203.487 1413.21 196.89 1406.49 191.181C1399.77 185.471 1391.39 180.904 1381.75 177.605C1372.11 174.307 1360.82 172.53 1348.51 172.53Z" fill="#121212"/>
<path d="M791.151 342.035C775.038 342.035 760.702 340.259 748.522 336.707C736.342 333.154 725.939 328.333 717.819 322.116C709.699 315.899 703.355 308.541 699.295 300.167C695.109 291.793 693.079 282.659 693.079 272.762C693.079 262.866 695.235 253.605 699.549 245.485C703.863 237.365 710.46 230.133 719.088 224.297C727.715 218.461 738.626 213.766 751.567 210.594C764.508 207.423 779.733 205.773 796.86 205.773C809.548 205.773 823.123 206.661 837.206 208.564C851.289 210.468 866.006 213.386 880.977 217.192C880.343 210.721 878.44 204.505 875.014 199.049C871.589 193.467 866.894 188.645 860.804 184.585C854.841 180.525 847.483 177.354 838.982 175.197C830.482 173.04 820.839 171.898 810.055 171.898C804.219 171.898 797.749 172.279 790.771 172.913C783.666 173.674 776.434 174.689 768.948 176.085C761.463 177.48 753.978 179.257 746.746 181.414C740.91 183.063 735.2 185.093 729.872 187.377L726.192 188.899L710.333 146.143L714.013 144.874C720.737 142.59 727.969 140.433 735.581 138.403C744.462 136.12 753.724 134.09 763.112 132.314C772.501 130.664 781.889 129.269 791.278 128.38C800.667 127.492 809.801 126.985 818.556 126.985C857.252 126.985 886.306 137.008 905.083 156.673C923.86 176.339 933.376 207.042 933.376 247.768V338.229H881.358V318.691C876.029 321.862 870.066 324.907 863.722 327.699C857.379 330.49 850.274 333.027 842.915 335.057C835.43 337.214 827.31 338.863 818.683 340.132C810.055 341.401 800.92 342.035 791.278 342.035H791.151ZM798.637 247.261C788.994 247.261 780.748 247.895 774.404 249.164C767.934 250.433 762.732 252.209 758.799 254.366C754.866 256.523 751.948 259.06 750.298 261.978C748.649 264.896 747.888 267.941 747.888 271.113C747.888 274.539 748.776 277.837 750.552 280.882C752.328 283.927 755.119 286.718 759.052 289.129C762.859 291.54 767.933 293.443 773.897 294.965C779.86 296.488 787.218 297.122 795.845 297.122C804.98 297.122 813.861 296.234 822.362 294.711C830.862 293.062 838.982 290.905 846.341 288.241C853.699 285.577 860.424 282.405 866.387 278.979C872.35 275.427 877.298 271.874 881.358 268.068V258.933C873.365 256.776 865.499 254.873 857.759 253.351C850.02 251.828 842.535 250.56 835.43 249.798C828.325 248.91 821.601 248.276 815.384 247.895C809.167 247.515 803.585 247.388 798.89 247.388L798.637 247.261Z" fill="#121212"/>
<path d="M1682.18 338.357V244.725C1682.18 233.433 1680.53 223.156 1677.36 214.148C1674.19 205.267 1669.49 197.528 1663.4 191.438C1657.44 185.348 1649.95 180.527 1641.45 177.355C1632.83 174.183 1623.18 172.534 1612.53 172.534C1606.94 172.534 1601.11 173.168 1595.14 174.31C1589.18 175.452 1583.35 177.228 1577.76 179.385C1572.05 181.542 1566.6 184.206 1561.27 187.505C1556.07 190.676 1551.12 194.356 1546.81 198.543V338.357H1494.79V130.792H1546.81V148.428C1560.63 140.561 1573.96 134.979 1586.52 131.934C1599.08 128.762 1611.51 127.24 1623.56 127.24C1639.3 127.24 1654.14 129.523 1667.59 134.218C1681.04 138.785 1692.84 145.763 1702.61 154.898C1712.37 164.033 1720.24 175.452 1725.7 189.154C1731.28 202.729 1734.07 218.715 1734.07 236.605V338.611H1682.18V338.357Z" fill="#121212"/>
<path d="M1856.5 407C1819.58 407 1764.77 386.574 1740.41 353.587L1777.33 326.309C1790.27 343.817 1829.6 361.072 1856.63 361.072C1898.75 361.072 1927.17 338.869 1941.12 295.225C1945.31 282.03 1947.34 267.947 1947.85 253.61C1930.97 272.007 1910.8 287.486 1888.35 298.524C1848.51 318.189 1808.29 318.189 1780.63 298.27C1764.14 286.344 1753.35 267.947 1750.18 246.252C1746.76 222.4 1753.35 197.025 1767.82 178.628C1791.29 148.559 1833.16 133.081 1877.05 138.029C1915.24 142.342 1963.58 162.262 1988.96 178.248C1993.65 218.847 1998.98 264.902 1984.77 309.181C1964.85 371.222 1918.16 406.874 1856.5 406.874V407ZM1860.81 183.196C1837.22 183.196 1815.52 192.077 1803.72 207.048C1796.87 215.675 1793.7 228.236 1795.35 239.908C1796.11 245.237 1798.65 255.133 1807.15 261.096C1823.13 272.641 1849.01 266.805 1867.79 257.543C1892.66 245.237 1913.85 226.333 1928.94 203.369C1911.69 194.107 1892.02 186.114 1871.6 183.83C1867.92 183.449 1864.37 183.196 1860.81 183.196Z" fill="#121212"/>
</svg>
