<svg width="30" height="30" viewBox="0 0 30 30" fill="none" xmlns="http://www.w3.org/2000/svg">
<path d="M20.5372 25.7793C19.377 25.7793 18.4005 25.3453 17.7828 24.5273C16.8814 23.3254 17.04 21.5392 18.1584 20.3706C18.9347 19.561 20.0448 19.1102 21.3802 19.0602C22.4653 19.0268 23.5254 19.2521 24.4852 19.7029C24.7523 19.0852 24.9026 18.4175 24.9026 17.7497C24.8859 15.5378 23.1915 13.3927 21.0464 12.8669C20.796 12.8001 20.5372 12.7667 20.2701 12.75C20.2534 12.9587 20.2367 13.1673 20.2034 13.376C19.9029 15.4293 18.8262 17.2072 17.257 18.2756C15.8547 19.2188 14.2688 19.2855 13.2005 18.4425C11.9985 17.491 11.7982 15.7048 12.708 13.9937C13.6095 12.2909 15.1536 11.0055 16.9314 10.3044C16.7729 9.90376 16.5558 9.52816 16.2887 9.20264C14.7029 7.25784 11.5311 6.66522 9.06049 7.85046C6.69002 8.98562 4.93721 11.6232 4.58665 14.5613C4.26947 17.274 5.05406 20.2788 6.79018 23.0165L4.24443 24.6358C2.13271 21.3054 1.18953 17.5995 1.59017 14.2107C2.05759 10.2042 4.41971 6.72365 7.75005 5.12942C11.481 3.33486 16.1552 4.2697 18.6175 7.29123C19.1934 7.99236 19.6274 8.82703 19.9112 9.72014C20.5372 9.72014 21.1549 9.78691 21.7642 9.93715C25.2448 10.7969 27.8907 14.1439 27.9157 17.7247C27.9241 19.0769 27.5652 20.3956 26.9225 21.5642C27.7488 22.5324 28.3247 23.726 28.5 25.0281L25.5119 25.4371C25.4368 24.9196 25.2448 24.4188 24.961 23.9764C24.0679 24.736 23.0246 25.2952 21.8811 25.5957C21.4136 25.7209 20.9629 25.7793 20.5372 25.7793ZM20.2367 22.7578C20.3202 22.7578 20.6374 22.7995 21.1132 22.6827C21.5472 22.5658 21.9645 22.3905 22.3568 22.1485C22.073 22.09 21.7892 22.0566 21.4971 22.0733C20.9713 22.09 20.5456 22.2319 20.3286 22.4573C20.2367 22.5491 20.2034 22.7077 20.2117 22.7578C20.2117 22.7578 20.2201 22.7578 20.2284 22.7578H20.2367ZM17.0733 13.593C16.3639 14.0521 15.7546 14.6698 15.3623 15.4043C15.2538 15.613 15.187 15.8216 15.1703 15.9719C15.2788 15.9385 15.4207 15.8717 15.5709 15.7715C16.2804 15.2958 16.8062 14.5195 17.0817 13.593H17.0733Z" fill="#FF5414"/>
</svg>
