<svg width="14" height="14" viewBox="0 0 14 14" fill="none" xmlns="http://www.w3.org/2000/svg">
<path d="M7.0013 4.66699C5.74004 4.66699 4.66797 5.73906 4.66797 7.00033C4.66797 8.26159 5.74004 9.33366 7.0013 9.33366C8.26256 9.33366 9.33464 8.26159 9.33464 7.00033C9.33464 5.73906 8.26256 4.66699 7.0013 4.66699Z" fill="#C5C5C5"/>
<path d="M9.99091 0H4.07273C1.78182 0 0 1.78182 0 4.00909V9.92727C0 12.2182 1.78182 14 4.07273 14H9.99091C12.2182 14 14 12.2182 14 9.92727V4.00909C14 1.78182 12.2182 0 9.99091 0ZM7 10.6909C4.96364 10.6909 3.37273 9.03636 3.37273 7.06364C3.37273 5.09091 4.96364 3.37273 7 3.37273C9.03636 3.37273 10.6273 5.02727 10.6273 7C10.6273 8.97273 9.03636 10.6909 7 10.6909ZM10.7545 4.13636C10.3091 4.13636 9.92727 3.75455 9.92727 3.30909C9.92727 2.86364 10.3091 2.48182 10.7545 2.48182C11.2 2.48182 11.5818 2.86364 11.5818 3.30909C11.5818 3.75455 11.2 4.13636 10.7545 4.13636Z" fill="#C5C5C5"/>
</svg>
