<svg xmlns="http://www.w3.org/2000/svg" width="14" height="14" viewBox="0 0 14 14" fill="none">
  <rect width="14" height="14" rx="3.5" fill="#C5C5C5"/>
  <path d="M11.6112 4.70322C11.5003 4.28666 11.1747 3.95932 10.7603 3.84781C10.01 3.64551 6.99998 3.64551 6.99998 3.64551C6.99998 3.64551 3.99001 3.64551 3.23969 3.84781C2.82531 3.95932 2.49967 4.28666 2.38875 4.70322C2.1875 5.45747 2.1875 7.03208 2.1875 7.03208C2.1875 7.03208 2.1875 8.6067 2.38875 9.36096C2.49967 9.77751 2.82531 10.1049 3.23969 10.2163C3.99001 10.4187 6.99998 10.4187 6.99998 10.4187C6.99998 10.4187 10.01 10.4187 10.7603 10.2163C11.1747 10.1049 11.5003 9.77751 11.6112 9.36096C11.8125 8.6067 11.8125 7.03208 11.8125 7.03208C11.8125 7.03208 11.8117 5.45747 11.6112 4.70322Z" fill="white"/>
  <path d="M6.03516 8.45847L8.53569 7.01489L6.03516 5.57129V8.45847Z" fill="#C5C5C5"/>
</svg>