<svg width="273" height="273" viewBox="0 0 273 273" fill="none" xmlns="http://www.w3.org/2000/svg">
<path d="M80.9224 191.291C93.1928 201.326 108.247 208.084 124.75 210.23C124.192 210.482 123.64 210.753 123.096 211.045L97.3282 224.85C87.1079 230.325 75.1089 221.492 77.3006 210.107L80.9224 191.291Z" fill="#3DBBFF"/>
<path d="M194.907 210.107C197.098 221.492 185.099 230.325 174.879 224.85L149.11 211.045C148.566 210.753 148.013 210.482 147.455 210.23C163.958 208.085 179.013 201.327 191.284 191.292L194.907 210.107Z" fill="#3DBBFF"/>
<path fill-rule="evenodd" clip-rule="evenodd" d="M136.103 45.6973C179.204 45.6974 214.145 80.6385 214.146 123.74C214.146 166.841 179.205 201.782 136.103 201.782C93.0015 201.782 58.0605 166.841 58.0605 123.74C58.0608 80.6384 93.0016 45.6973 136.103 45.6973ZM138.36 79.3611C137.587 77.2646 134.621 77.2648 133.848 79.3611L125.433 102.183C125.032 103.271 123.912 103.918 122.769 103.721L98.7989 99.5975C96.5962 99.2185 95.1128 101.787 96.542 103.505L112.1 122.202C112.841 123.093 112.841 124.387 112.1 125.278L96.542 143.975C95.1125 145.693 96.5961 148.262 98.7989 147.883L122.769 143.759C123.912 143.563 125.032 144.21 125.433 145.297L133.848 168.118C134.621 170.215 137.587 170.215 138.36 168.118L146.773 145.297C147.174 144.21 148.294 143.563 149.437 143.759L173.407 147.883C175.61 148.262 177.094 145.693 175.664 143.975L160.107 125.278C159.365 124.387 159.365 123.093 160.107 122.202L175.664 103.505C177.094 101.787 175.61 99.2185 173.407 99.5975L149.437 103.721C148.294 103.918 147.174 103.271 146.773 102.183L138.36 79.3611Z" fill="#3DBBFF"/>
</svg>
